<svg width="1056" height="768" viewBox="0 0 1056 768" fill="none" xmlns="http://www.w3.org/2000/svg">
<path d="M8 0.5H1048C1052.14 0.5 1055.5 3.85786 1055.5 8V760C1055.5 764.142 1052.14 767.5 1048 767.5H8C3.85787 767.5 0.5 764.142 0.5 760V8C0.500008 3.85787 3.85787 0.5 8 0.5Z" fill="white"/>
<path d="M8 0.5H1048C1052.14 0.5 1055.5 3.85786 1055.5 8V760C1055.5 764.142 1052.14 767.5 1048 767.5H8C3.85787 767.5 0.5 764.142 0.5 760V8C0.500008 3.85787 3.85787 0.5 8 0.5Z" stroke="#8D8D8D"/>
<path d="M1 8.00002C1 4.13403 4.13401 1 8 1H1048C1051.87 1 1055 4.13401 1055 8V760C1055 763.866 1051.87 767 1048 767H8.00002C4.13403 767 1 763.866 1 760V8.00002Z" fill="white"/>
<g clip-path="url(#clip0_571_10292)">
<path d="M61.18 29H56.742V27.516H58.03V20.712H56.742V19.228H61.18V20.712H59.878V27.516H61.18V29ZM63.2279 29V19.228H67.7499C69.3599 19.228 70.3399 20.222 70.3399 21.734C70.3399 23.218 69.4859 23.778 68.5899 23.834V23.918C69.4439 23.932 70.7039 24.534 70.7039 26.2C70.7039 27.768 69.6259 29 68.1839 29H63.2279ZM65.0759 24.814V27.432H67.6519C68.3519 27.432 68.7719 27.054 68.7719 26.368V25.892C68.7719 25.206 68.3519 24.814 67.6519 24.814H65.0759ZM65.0759 20.796V23.302H67.3579C68.0299 23.302 68.4219 22.91 68.4219 22.266V21.832C68.4219 21.174 68.0299 20.796 67.3579 20.796H65.0759ZM72.6711 29V19.228H74.7571L77.2631 24.002H77.3191L79.7971 19.228H81.7991V29H80.0491V21.986H79.9931L79.2371 23.54L77.2351 27.236L75.2331 23.54L74.4771 21.986H74.4211V29H72.6711ZM91.5234 29.168C88.9474 29.168 87.3094 27.474 87.3094 24.184C87.3094 20.894 88.9474 19.06 91.5234 19.06C93.2734 19.06 94.4074 19.802 95.0934 21.314L93.5114 22.154C93.2314 21.286 92.6154 20.698 91.5234 20.698C90.1514 20.698 89.2694 21.692 89.2694 23.358V24.898C89.2694 26.578 90.1514 27.53 91.5234 27.53C92.6294 27.53 93.3154 26.858 93.6374 25.976L95.1354 26.858C94.4354 28.314 93.2734 29.168 91.5234 29.168ZM99.5178 29H98.5518C97.3338 29 96.7598 28.356 96.7598 27.236V18.64H98.5518V27.572H99.5178V29ZM103.933 29.168C101.847 29.168 100.545 27.684 100.545 25.332C100.545 22.994 101.847 21.524 103.933 21.524C106.033 21.524 107.335 22.994 107.335 25.332C107.335 27.684 106.033 29.168 103.933 29.168ZM103.933 27.726C104.871 27.726 105.459 27.124 105.459 26.018V24.66C105.459 23.568 104.871 22.966 103.933 22.966C103.009 22.966 102.421 23.568 102.421 24.66V26.018C102.421 27.124 103.009 27.726 103.933 27.726ZM113.452 29V27.782H113.382C113.13 28.51 112.542 29.168 111.338 29.168C109.84 29.168 109 28.132 109 26.312V21.692H110.792V26.13C110.792 27.138 111.17 27.684 112.024 27.684C112.738 27.684 113.452 27.306 113.452 26.522V21.692H115.244V29H113.452ZM122.01 29V27.782H121.94C121.674 28.608 120.89 29.168 119.924 29.168C118.09 29.168 117.068 27.782 117.068 25.332C117.068 22.896 118.09 21.524 119.924 21.524C120.89 21.524 121.688 22.056 121.94 22.896H122.01V18.64H123.802V29H122.01ZM120.498 27.684C121.352 27.684 122.01 27.25 122.01 26.494V24.17C122.01 23.456 121.352 22.994 120.498 22.994C119.574 22.994 118.944 23.68 118.944 24.716V25.976C118.944 27.012 119.574 27.684 120.498 27.684Z" fill="black"/>
<rect width="24" height="24" transform="translate(16 12)" fill="white" fill-opacity="0.01" style="mix-blend-mode:multiply"/>
<path d="M28.0003 17.25C28.3806 17.2499 28.7599 17.2876 29.1328 17.3625C30.311 17.5882 31.3945 18.1618 32.2435 19.0094C33.0924 19.857 33.6678 20.9396 33.8953 22.1175L34.0903 23.13L35.1028 23.31C36.1254 23.4859 37.0442 24.0407 37.676 24.8639C38.3077 25.6871 38.606 26.7181 38.5114 27.7515C38.4168 28.7848 37.9362 29.7446 37.1654 30.4393C36.3946 31.134 35.3904 31.5128 34.3528 31.5H21.6253C20.5877 31.5128 19.5834 31.134 18.8126 30.4393C18.0419 29.7446 17.5613 28.7848 17.4666 27.7515C17.372 26.7181 17.6703 25.6871 18.3021 24.8639C18.9338 24.0407 19.8526 23.4859 20.8753 23.31L21.8803 23.13L22.0753 22.1175C22.3396 20.7422 23.0766 19.5027 24.1588 18.6138C25.2409 17.7248 26.5998 17.2423 28.0003 17.25ZM28.0003 15.75C26.2547 15.7486 24.5634 16.356 23.2176 17.4677C21.8718 18.5793 20.9559 20.1256 20.6278 21.84C19.2465 22.0901 18.0087 22.8476 17.1574 23.9637C16.3061 25.0798 15.9029 26.4738 16.0269 27.8721C16.1509 29.2703 16.7933 30.5716 17.8277 31.5204C18.8622 32.4692 20.2141 32.997 21.6178 33H34.3678C35.7715 32.997 37.1233 32.4692 38.1578 31.5204C39.1923 30.5716 39.8346 29.2703 39.9586 27.8721C40.0827 26.4738 39.6794 25.0798 38.8282 23.9637C37.9769 22.8476 36.739 22.0901 35.3578 21.84C35.0753 20.3654 34.3567 19.0095 33.295 17.9478C32.2333 16.8861 30.8774 16.1675 29.4028 15.885C28.9404 15.7972 28.4709 15.7521 28.0003 15.75Z" fill="black"/>
</g>
<rect x="48.5" y="96.5" width="959" height="287" fill="white" fill-opacity="0.01" style="mix-blend-mode:multiply"/>
<rect x="48.5" y="96.5" width="959" height="287" stroke="#0F62FE"/>
<rect x="49" y="97" width="958" height="286" fill="white"/>
<rect x="49" y="97" width="958" height="286" fill="#EDF5FF"/>
<g clip-path="url(#clip1_571_10292)">
<path d="M106.996 125H105.148V115.228H109.544C111.35 115.228 112.442 116.446 112.442 118.252C112.442 120.072 111.35 121.276 109.544 121.276H106.996V125ZM106.996 116.838V119.68H109.376C110.09 119.68 110.524 119.288 110.524 118.574V117.93C110.524 117.216 110.09 116.838 109.376 116.838H106.996ZM115.82 125H114.028V117.692H115.82V119.204H115.89C116.072 118.434 116.66 117.692 117.822 117.692H118.214V119.386H117.654C116.45 119.386 115.82 119.722 115.82 120.52V125ZM122.514 125.168C120.428 125.168 119.126 123.684 119.126 121.332C119.126 118.994 120.428 117.524 122.514 117.524C124.614 117.524 125.916 118.994 125.916 121.332C125.916 123.684 124.614 125.168 122.514 125.168ZM122.514 123.726C123.452 123.726 124.04 123.124 124.04 122.018V120.66C124.04 119.568 123.452 118.966 122.514 118.966C121.59 118.966 121.002 119.568 121.002 120.66V122.018C121.002 123.124 121.59 123.726 122.514 123.726ZM132.2 125V123.782H132.13C131.864 124.608 131.08 125.168 130.114 125.168C128.28 125.168 127.258 123.782 127.258 121.332C127.258 118.896 128.28 117.524 130.114 117.524C131.08 117.524 131.878 118.056 132.13 118.896H132.2V114.64H133.992V125H132.2ZM130.688 123.684C131.542 123.684 132.2 123.25 132.2 122.494V120.17C132.2 119.456 131.542 118.994 130.688 118.994C129.764 118.994 129.134 119.68 129.134 120.716V121.976C129.134 123.012 129.764 123.684 130.688 123.684ZM140.587 125V123.782H140.517C140.265 124.51 139.677 125.168 138.473 125.168C136.975 125.168 136.135 124.132 136.135 122.312V117.692H137.927V122.13C137.927 123.138 138.305 123.684 139.159 123.684C139.873 123.684 140.587 123.306 140.587 122.522V117.692H142.379V125H140.587ZM147.493 125.168C145.337 125.168 144.119 123.684 144.119 121.332C144.119 118.994 145.337 117.524 147.493 117.524C148.963 117.524 149.929 118.224 150.363 119.372L148.893 120.03C148.725 119.414 148.263 118.966 147.493 118.966C146.499 118.966 145.995 119.666 145.995 120.688V122.018C145.995 123.04 146.499 123.726 147.493 123.726C148.347 123.726 148.767 123.236 149.033 122.578L150.405 123.236C149.929 124.524 148.907 125.168 147.493 125.168ZM154.229 125C152.997 125 152.339 124.328 152.339 123.138V119.12H151.261V117.692H151.821C152.353 117.692 152.521 117.44 152.521 116.936V115.69H154.131V117.692H155.629V119.12H154.131V123.572H155.517V125H154.229ZM158.239 116.628C157.497 116.628 157.189 116.25 157.189 115.732V115.452C157.189 114.934 157.497 114.556 158.239 114.556C158.967 114.556 159.289 114.934 159.289 115.452V115.732C159.289 116.25 158.967 116.628 158.239 116.628ZM157.343 125V117.692H159.135V125H157.343ZM164.271 125.168C162.185 125.168 160.883 123.684 160.883 121.332C160.883 118.994 162.185 117.524 164.271 117.524C166.371 117.524 167.673 118.994 167.673 121.332C167.673 123.684 166.371 125.168 164.271 125.168ZM164.271 123.726C165.209 123.726 165.797 123.124 165.797 122.018V120.66C165.797 119.568 165.209 118.966 164.271 118.966C163.347 118.966 162.759 119.568 162.759 120.66V122.018C162.759 123.124 163.347 123.726 164.271 123.726ZM171.213 125H169.421V117.692H171.213V118.91H171.283C171.577 118.126 172.193 117.524 173.327 117.524C174.825 117.524 175.665 118.56 175.665 120.38V125H173.873V120.562C173.873 119.526 173.523 118.994 172.669 118.994C171.927 118.994 171.213 119.386 171.213 120.17V125ZM183.24 121.234V125H181.392V115.228H185.802C187.58 115.228 188.686 116.404 188.686 118.252C188.686 119.596 188.07 120.618 186.866 121.024L188.868 125H186.81L184.99 121.234H183.24ZM183.24 119.68H185.62C186.334 119.68 186.768 119.288 186.768 118.574V117.93C186.768 117.216 186.334 116.838 185.62 116.838H183.24V119.68ZM193.486 125.168C191.33 125.168 190.042 123.67 190.042 121.332C190.042 119.022 191.288 117.524 193.43 117.524C195.712 117.524 196.762 119.204 196.762 121.206V121.794H191.904V121.976C191.904 123.026 192.506 123.74 193.682 123.74C194.564 123.74 195.096 123.32 195.544 122.746L196.51 123.824C195.908 124.65 194.844 125.168 193.486 125.168ZM193.458 118.868C192.52 118.868 191.904 119.568 191.904 120.576V120.688H194.9V120.562C194.9 119.554 194.382 118.868 193.458 118.868ZM205.093 125.616C205.093 127.142 204.057 127.968 201.257 127.968C198.793 127.968 197.855 127.324 197.855 126.246C197.855 125.434 198.345 124.972 199.157 124.846V124.692C198.555 124.538 198.219 124.062 198.219 123.474C198.219 122.718 198.863 122.34 199.563 122.186V122.13C198.681 121.724 198.233 120.968 198.233 120.002C198.233 118.518 199.283 117.524 201.257 117.524C201.705 117.524 202.167 117.58 202.531 117.706V117.468C202.531 116.754 202.895 116.404 203.567 116.404H204.701V117.776H203.147V117.972C203.903 118.392 204.281 119.106 204.281 120.002C204.281 121.472 203.245 122.452 201.257 122.452C200.837 122.452 200.459 122.41 200.137 122.326C199.857 122.452 199.619 122.662 199.619 122.984C199.619 123.348 199.927 123.53 200.571 123.53H202.531C204.323 123.53 205.093 124.3 205.093 125.616ZM203.413 125.826C203.413 125.364 203.077 125.084 202.167 125.084H199.675C199.409 125.28 199.297 125.546 199.297 125.84C199.297 126.4 199.717 126.736 200.837 126.736H201.733C202.895 126.736 203.413 126.442 203.413 125.826ZM201.257 121.234C202.111 121.234 202.573 120.842 202.573 120.114V119.876C202.573 119.134 202.111 118.756 201.257 118.756C200.403 118.756 199.941 119.134 199.941 119.876V120.114C199.941 120.842 200.403 121.234 201.257 121.234ZM207.184 116.628C206.442 116.628 206.134 116.25 206.134 115.732V115.452C206.134 114.934 206.442 114.556 207.184 114.556C207.912 114.556 208.234 114.934 208.234 115.452V115.732C208.234 116.25 207.912 116.628 207.184 116.628ZM206.288 125V117.692H208.08V125H206.288ZM213.215 125.168C211.129 125.168 209.827 123.684 209.827 121.332C209.827 118.994 211.129 117.524 213.215 117.524C215.315 117.524 216.617 118.994 216.617 121.332C216.617 123.684 215.315 125.168 213.215 125.168ZM213.215 123.726C214.153 123.726 214.741 123.124 214.741 122.018V120.66C214.741 119.568 214.153 118.966 213.215 118.966C212.291 118.966 211.703 119.568 211.703 120.66V122.018C211.703 123.124 212.291 123.726 213.215 123.726ZM220.158 125H218.366V117.692H220.158V118.91H220.228C220.522 118.126 221.138 117.524 222.272 117.524C223.77 117.524 224.61 118.56 224.61 120.38V125H222.818V120.562C222.818 119.526 222.468 118.994 221.614 118.994C220.872 118.994 220.158 119.386 220.158 120.17V125Z" fill="black"/>
<rect width="24" height="24" transform="translate(64 108)" fill="white" fill-opacity="0.01" style="mix-blend-mode:multiply"/>
<path d="M76 121.5C75.2583 121.5 74.5333 121.28 73.9166 120.868C73.2999 120.456 72.8193 119.87 72.5355 119.185C72.2516 118.5 72.1774 117.746 72.3221 117.018C72.4668 116.291 72.8239 115.623 73.3484 115.098C73.8728 114.574 74.541 114.217 75.2684 114.072C75.9958 113.927 76.7498 114.002 77.4351 114.285C78.1203 114.569 78.706 115.05 79.118 115.667C79.5301 116.283 79.75 117.008 79.75 117.75C79.7489 118.744 79.3534 119.697 78.6504 120.4C77.9474 121.103 76.9942 121.499 76 121.5ZM76 115.5C75.555 115.5 75.12 115.632 74.75 115.879C74.38 116.126 74.0916 116.478 73.9213 116.889C73.751 117.3 73.7064 117.752 73.7932 118.189C73.8801 118.625 74.0943 119.026 74.409 119.341C74.7237 119.656 75.1246 119.87 75.5611 119.957C75.9975 120.044 76.4499 119.999 76.861 119.829C77.2722 119.658 77.6236 119.37 77.8708 119C78.118 118.63 78.25 118.195 78.25 117.75C78.2494 117.153 78.0121 116.582 77.5903 116.16C77.1685 115.738 76.5965 115.501 76 115.5Z" fill="black"/>
<path d="M76 130.5L69.6734 123.038C69.6375 122.996 69.4122 122.7 69.4122 122.7C68.3314 121.276 67.7475 119.537 67.75 117.75C67.75 115.562 68.6192 113.464 70.1664 111.916C71.7136 110.369 73.812 109.5 76 109.5C78.188 109.5 80.2865 110.369 81.8336 111.916C83.3808 113.464 84.25 115.562 84.25 117.75C84.2527 119.537 83.6692 121.275 82.5889 122.698L82.5878 122.7C82.5878 122.7 82.3628 122.996 82.3293 123.035L76 130.5ZM70.6094 121.796C70.6094 121.796 70.7844 122.027 70.8243 122.077L76 128.181L81.1825 122.068C81.2154 122.027 81.3916 121.794 81.3916 121.794C82.2746 120.631 82.7517 119.21 82.75 117.75C82.75 115.96 82.0388 114.243 80.773 112.977C79.5071 111.711 77.7902 111 76 111C74.2098 111 72.4929 111.711 71.227 112.977C69.9612 114.243 69.25 115.96 69.25 117.75C69.2483 119.211 69.7259 120.632 70.6094 121.796Z" fill="black"/>
<line x1="50" y1="96" x2="50" y2="144" stroke="#0F62FE" stroke-width="4"/>
</g>
<rect x="48.5" y="432.5" width="959" height="287" fill="white" fill-opacity="0.01" style="mix-blend-mode:multiply"/>
<rect x="48.5" y="432.5" width="959" height="287" stroke="#0F62FE"/>
<rect x="49" y="433" width="958" height="286" fill="white"/>
<rect x="49" y="433" width="958" height="286" fill="#EDF5FF"/>
<g clip-path="url(#clip2_571_10292)">
<path d="M106.996 457.234V461H105.148V451.228H109.558C111.336 451.228 112.442 452.404 112.442 454.252C112.442 455.596 111.826 456.618 110.622 457.024L112.624 461H110.566L108.746 457.234H106.996ZM106.996 455.68H109.376C110.09 455.68 110.524 455.288 110.524 454.574V453.93C110.524 453.216 110.09 452.838 109.376 452.838H106.996V455.68ZM117.242 461.168C115.086 461.168 113.798 459.67 113.798 457.332C113.798 455.022 115.044 453.524 117.186 453.524C119.468 453.524 120.518 455.204 120.518 457.206V457.794H115.66V457.976C115.66 459.026 116.262 459.74 117.438 459.74C118.32 459.74 118.852 459.32 119.3 458.746L120.266 459.824C119.664 460.65 118.6 461.168 117.242 461.168ZM117.214 454.868C116.276 454.868 115.66 455.568 115.66 456.576V456.688H118.656V456.562C118.656 455.554 118.138 454.868 117.214 454.868ZM124.648 461.168C123.262 461.168 122.352 460.664 121.624 459.824L122.716 458.76C123.248 459.376 123.892 459.754 124.718 459.754C125.572 459.754 125.936 459.432 125.936 458.914C125.936 458.494 125.684 458.228 125.04 458.144L124.312 458.046C122.744 457.85 121.876 457.164 121.876 455.834C121.876 454.42 122.982 453.524 124.648 453.524C126.076 453.524 126.804 453.944 127.504 454.672L126.454 455.722C126.034 455.274 125.418 454.938 124.704 454.938C123.934 454.938 123.598 455.246 123.598 455.694C123.598 456.184 123.864 456.408 124.55 456.52L125.292 456.618C126.888 456.842 127.658 457.556 127.658 458.774C127.658 460.188 126.468 461.168 124.648 461.168ZM131.573 461C130.341 461 129.683 460.328 129.683 459.138V455.12H128.605V453.692H129.165C129.697 453.692 129.865 453.44 129.865 452.936V451.69H131.475V453.692H132.973V455.12H131.475V459.572H132.861V461H131.573ZM137.531 461.168C135.445 461.168 134.143 459.684 134.143 457.332C134.143 454.994 135.445 453.524 137.531 453.524C139.631 453.524 140.933 454.994 140.933 457.332C140.933 459.684 139.631 461.168 137.531 461.168ZM137.531 459.726C138.469 459.726 139.057 459.124 139.057 458.018V456.66C139.057 455.568 138.469 454.966 137.531 454.966C136.607 454.966 136.019 455.568 136.019 456.66V458.018C136.019 459.124 136.607 459.726 137.531 459.726ZM144.474 461H142.682V453.692H144.474V455.204H144.544C144.726 454.434 145.314 453.692 146.476 453.692H146.868V455.386H146.308C145.104 455.386 144.474 455.722 144.474 456.52V461ZM151.223 461.168C149.067 461.168 147.779 459.67 147.779 457.332C147.779 455.022 149.025 453.524 151.167 453.524C153.449 453.524 154.499 455.204 154.499 457.206V457.794H149.641V457.976C149.641 459.026 150.243 459.74 151.419 459.74C152.301 459.74 152.833 459.32 153.281 458.746L154.247 459.824C153.645 460.65 152.581 461.168 151.223 461.168ZM151.195 454.868C150.257 454.868 149.641 455.568 149.641 456.576V456.688H152.637V456.562C152.637 455.554 152.119 454.868 151.195 454.868ZM161.665 457.234V461H159.817V451.228H164.227C166.005 451.228 167.111 452.404 167.111 454.252C167.111 455.596 166.495 456.618 165.291 457.024L167.293 461H165.235L163.415 457.234H161.665ZM161.665 455.68H164.045C164.759 455.68 165.193 455.288 165.193 454.574V453.93C165.193 453.216 164.759 452.838 164.045 452.838H161.665V455.68ZM171.91 461.168C169.754 461.168 168.466 459.67 168.466 457.332C168.466 455.022 169.712 453.524 171.854 453.524C174.136 453.524 175.186 455.204 175.186 457.206V457.794H170.328V457.976C170.328 459.026 170.93 459.74 172.106 459.74C172.988 459.74 173.52 459.32 173.968 458.746L174.934 459.824C174.332 460.65 173.268 461.168 171.91 461.168ZM171.882 454.868C170.944 454.868 170.328 455.568 170.328 456.576V456.688H173.324V456.562C173.324 455.554 172.806 454.868 171.882 454.868ZM183.517 461.616C183.517 463.142 182.481 463.968 179.681 463.968C177.217 463.968 176.279 463.324 176.279 462.246C176.279 461.434 176.769 460.972 177.581 460.846V460.692C176.979 460.538 176.643 460.062 176.643 459.474C176.643 458.718 177.287 458.34 177.987 458.186V458.13C177.105 457.724 176.657 456.968 176.657 456.002C176.657 454.518 177.707 453.524 179.681 453.524C180.129 453.524 180.591 453.58 180.955 453.706V453.468C180.955 452.754 181.319 452.404 181.991 452.404H183.125V453.776H181.571V453.972C182.327 454.392 182.705 455.106 182.705 456.002C182.705 457.472 181.669 458.452 179.681 458.452C179.261 458.452 178.883 458.41 178.561 458.326C178.281 458.452 178.043 458.662 178.043 458.984C178.043 459.348 178.351 459.53 178.995 459.53H180.955C182.747 459.53 183.517 460.3 183.517 461.616ZM181.837 461.826C181.837 461.364 181.501 461.084 180.591 461.084H178.099C177.833 461.28 177.721 461.546 177.721 461.84C177.721 462.4 178.141 462.736 179.261 462.736H180.157C181.319 462.736 181.837 462.442 181.837 461.826ZM179.681 457.234C180.535 457.234 180.997 456.842 180.997 456.114V455.876C180.997 455.134 180.535 454.756 179.681 454.756C178.827 454.756 178.365 455.134 178.365 455.876V456.114C178.365 456.842 178.827 457.234 179.681 457.234ZM185.608 452.628C184.866 452.628 184.558 452.25 184.558 451.732V451.452C184.558 450.934 184.866 450.556 185.608 450.556C186.336 450.556 186.658 450.934 186.658 451.452V451.732C186.658 452.25 186.336 452.628 185.608 452.628ZM184.712 461V453.692H186.504V461H184.712ZM191.639 461.168C189.553 461.168 188.251 459.684 188.251 457.332C188.251 454.994 189.553 453.524 191.639 453.524C193.739 453.524 195.041 454.994 195.041 457.332C195.041 459.684 193.739 461.168 191.639 461.168ZM191.639 459.726C192.577 459.726 193.165 459.124 193.165 458.018V456.66C193.165 455.568 192.577 454.966 191.639 454.966C190.715 454.966 190.127 455.568 190.127 456.66V458.018C190.127 459.124 190.715 459.726 191.639 459.726ZM198.582 461H196.79V453.692H198.582V454.91H198.652C198.946 454.126 199.562 453.524 200.696 453.524C202.194 453.524 203.034 454.56 203.034 456.38V461H201.242V456.562C201.242 455.526 200.892 454.994 200.038 454.994C199.296 454.994 198.582 455.386 198.582 456.17V461Z" fill="black"/>
<rect width="24" height="24" transform="translate(64 444)" fill="white" fill-opacity="0.01" style="mix-blend-mode:multiply"/>
<path d="M76 457.5C75.2583 457.5 74.5333 457.28 73.9166 456.868C73.2999 456.456 72.8193 455.87 72.5355 455.185C72.2516 454.5 72.1774 453.746 72.3221 453.018C72.4668 452.291 72.8239 451.623 73.3484 451.098C73.8728 450.574 74.541 450.217 75.2684 450.072C75.9958 449.927 76.7498 450.002 77.4351 450.285C78.1203 450.569 78.706 451.05 79.118 451.667C79.5301 452.283 79.75 453.008 79.75 453.75C79.7489 454.744 79.3534 455.697 78.6504 456.4C77.9474 457.103 76.9942 457.499 76 457.5ZM76 451.5C75.555 451.5 75.12 451.632 74.75 451.879C74.38 452.126 74.0916 452.478 73.9213 452.889C73.751 453.3 73.7064 453.752 73.7932 454.189C73.8801 454.625 74.0943 455.026 74.409 455.341C74.7237 455.656 75.1246 455.87 75.5611 455.957C75.9975 456.044 76.4499 455.999 76.861 455.829C77.2722 455.658 77.6236 455.37 77.8708 455C78.118 454.63 78.25 454.195 78.25 453.75C78.2494 453.153 78.0121 452.582 77.5903 452.16C77.1685 451.738 76.5965 451.501 76 451.5Z" fill="black"/>
<path d="M76 466.5L69.6734 459.038C69.6375 458.996 69.4122 458.7 69.4122 458.7C68.3314 457.276 67.7475 455.537 67.75 453.75C67.75 451.562 68.6192 449.464 70.1664 447.916C71.7136 446.369 73.812 445.5 76 445.5C78.188 445.5 80.2865 446.369 81.8336 447.916C83.3808 449.464 84.25 451.562 84.25 453.75C84.2527 455.537 83.6692 457.275 82.5889 458.698L82.5878 458.7C82.5878 458.7 82.3628 458.996 82.3293 459.035L76 466.5ZM70.6094 457.796C70.6094 457.796 70.7844 458.027 70.8243 458.077L76 464.181L81.1825 458.068C81.2154 458.027 81.3916 457.794 81.3916 457.794C82.2746 456.631 82.7517 455.21 82.75 453.75C82.75 451.96 82.0388 450.243 80.773 448.977C79.5071 447.711 77.7902 447 76 447C74.2098 447 72.4929 447.711 71.227 448.977C69.9612 450.243 69.25 451.96 69.25 453.75C69.2483 455.211 69.7259 456.632 70.6094 457.796Z" fill="black"/>
<line x1="50" y1="432" x2="50" y2="480" stroke="#0F62FE" stroke-width="4"/>
</g>
<rect width="208" height="192" transform="translate(64 176)" fill="white"/>
<rect x="64" y="176" width="208" height="192" fill="white"/>
<g clip-path="url(#clip3_571_10292)">
<path d="M127.854 203.362V205H120.532V203.348L125.586 196.866H120.784V195.228H127.714V196.88L122.646 203.362H127.854ZM132.407 205.168C130.32 205.168 129.018 203.684 129.018 201.332C129.018 198.994 130.32 197.524 132.407 197.524C134.507 197.524 135.809 198.994 135.809 201.332C135.809 203.684 134.507 205.168 132.407 205.168ZM132.407 203.726C133.345 203.726 133.933 203.124 133.933 202.018V200.66C133.933 199.568 133.345 198.966 132.407 198.966C131.482 198.966 130.894 199.568 130.894 200.66V202.018C130.894 203.124 131.482 203.726 132.407 203.726ZM139.349 205H137.557V197.692H139.349V198.91H139.419C139.713 198.126 140.329 197.524 141.463 197.524C142.961 197.524 143.801 198.56 143.801 200.38V205H142.009V200.562C142.009 199.526 141.659 198.994 140.805 198.994C140.063 198.994 139.349 199.386 139.349 200.17V205ZM148.902 205.168C146.746 205.168 145.458 203.67 145.458 201.332C145.458 199.022 146.704 197.524 148.846 197.524C151.128 197.524 152.178 199.204 152.178 201.206V201.794H147.32V201.976C147.32 203.026 147.922 203.74 149.098 203.74C149.98 203.74 150.512 203.32 150.96 202.746L151.926 203.824C151.324 204.65 150.26 205.168 148.902 205.168ZM148.874 198.868C147.936 198.868 147.32 199.568 147.32 200.576V200.688H150.316V200.562C150.316 199.554 149.798 198.868 148.874 198.868ZM164.355 205H157.621V203.502H160.309V196.558H160.183L158.055 199.078L156.907 198.112L159.329 195.228H162.115V203.502H164.355V205Z" fill="black"/>
<rect width="24" height="24" transform="translate(80 188)" fill="white" fill-opacity="0.01" style="mix-blend-mode:multiply"/>
<path d="M101 195.5H97.25V192.5C97.2495 192.102 97.0914 191.721 96.8102 191.44C96.529 191.159 96.1477 191 95.75 191H88.25C87.8523 191 87.4711 191.159 87.1898 191.44C86.9086 191.721 86.7505 192.102 86.75 192.5V195.5H83C82.6023 195.5 82.221 195.659 81.9398 195.94C81.6586 196.221 81.5005 196.602 81.5 197V209C81.5005 209.398 81.6586 209.779 81.9398 210.06C82.221 210.341 82.6023 210.5 83 210.5H101C101.398 210.5 101.779 210.341 102.06 210.06C102.341 209.779 102.5 209.398 102.5 209V197C102.5 196.602 102.341 196.221 102.06 195.94C101.779 195.659 101.398 195.5 101 195.5ZM83 209V197H86.75V198.5H85.25V200H86.75V201.5H85.25V203H86.75V204.5H85.25V206H86.75V209H83ZM95.75 209H88.25V192.5H95.75V209ZM101 209H97.25V206H98.75V204.5H97.25V203H98.75V201.5H97.25V200H98.75V198.5H97.25V197H101V209Z" fill="black"/>
<path d="M93.5 194H90.5V195.5H93.5V194Z" fill="black"/>
<path d="M93.5 197H90.5V198.5H93.5V197Z" fill="black"/>
<path d="M93.5 200H90.5V201.5H93.5V200Z" fill="black"/>
</g>
<path d="M70 176V176.5H74V176H78V176.5H82V176H86V176.5H90V176H94V176.5H98V176H102V176.5H106V176H110V176.5H114V176H118V176.5H122V176H126V176.5H130V176H134V176.5H138V176H142V176.5H146V176H150V176.5H154V176H158V176.5H162V176H166V176.5H170V176H174V176.5H178V176H182V176.5H186V176H190V176.5H194V176H198V176.5H202V176H206V176.5H210V176H214V176.5H218V176H222V176.5H226V176H230V176.5H234V176H238V176.5H242V176H246V176.5H250V176H254V176.5H258V176H262V176.5H266V176H270V176.5H271.5V178H272V182H271.5V186H272V190H271.5V194H272V198H271.5V202H272V206H271.5V210H272V214H271.5V218H272V222H271.5V226H272V230H271.5V234H272V238H271.5V242H272V246H271.5V250H272V254H271.5V258H272V262H271.5V266H272V270H271.5V274H272V278H271.5V282H272V286H271.5V290H272V294H271.5V298H272V302H271.5V306H272V310H271.5V314H272V318H271.5V322H272V326H271.5V330H272V334H271.5V338H272V342H271.5V346H272V350H271.5V354H272V358H271.5V362H272V366H271.5V367.5H270V368H266V367.5H262V368H258V367.5H254V368H250V367.5H246V368H242V367.5H238V368H234V367.5H230V368H226V367.5H222V368H218V367.5H214V368H210V367.5H206V368H202V367.5H198V368H194V367.5H190V368H186V367.5H182V368H178V367.5H174V368H170V367.5H166V368H162V367.5H158V368H154V367.5H150V368H146V367.5H142V368H138V367.5H134V368H130V367.5H126V368H122V367.5H118V368H114V367.5H110V368H106V367.5H102V368H98V367.5H94V368H90V367.5H86V368H82V367.5H78V368H74V367.5H70V368H66V367.5H64.5V366H64V362H64.5V358H64V354H64.5V350H64V346H64.5V342H64V338H64.5V334H64V330H64.5V326H64V322H64.5V318H64V314H64.5V310H64V306H64.5V302H64V298H64.5V294H64V290H64.5V286H64V282H64.5V278H64V274H64.5V270H64V266H64.5V262H64V258H64.5V254H64V250H64.5V246H64V242H64.5V238H64V234H64.5V230H64V226H64.5V222H64V218H64.5V214H64V210H64.5V206H64V202H64.5V198H64V194H64.5V190H64V186H64.5V182H64V178H64.5V176.5H66V176H70Z" stroke="black" stroke-dasharray="4 4"/>
<rect width="80" height="80" transform="translate(128 232)" fill="white" fill-opacity="0.01" style="mix-blend-mode:multiply"/>
<path d="M152 235H184C188.418 235 192 238.582 192 243V275C192 279.418 188.418 283 184 283H152C147.582 283 144 279.418 144 275V243C144 238.582 147.582 235 152 235Z" fill="#0F62FE"/>
<rect width="24" height="24" transform="translate(156 247)" fill="white" fill-opacity="0.01"/>
<path d="M173.235 268.656C170.199 268.656 169.044 267.863 169.044 266.535C169.035 266.316 169.07 266.098 169.146 265.892C169.222 265.687 169.337 265.498 169.487 265.338C169.636 265.178 169.815 265.048 170.014 264.958C170.214 264.867 170.429 264.817 170.648 264.81V264.62C170.31 264.545 170.01 264.353 169.799 264.079C169.588 263.805 169.479 263.466 169.492 263.12C169.492 262.189 170.285 261.723 171.148 261.533V261.464C170.641 261.246 170.212 260.878 169.919 260.409C169.627 259.941 169.484 259.395 169.509 258.843C169.509 257.015 170.803 255.79 173.235 255.79C173.767 255.781 174.296 255.857 174.804 256.015V255.721C174.778 255.546 174.793 255.368 174.848 255.199C174.902 255.031 174.994 254.877 175.118 254.75C175.241 254.624 175.393 254.527 175.559 254.468C175.726 254.409 175.905 254.389 176.08 254.411H177.477V256.101H175.563V256.342C176.007 256.586 176.374 256.949 176.621 257.392C176.868 257.834 176.985 258.337 176.96 258.843C176.96 260.654 175.683 261.861 173.235 261.861C172.77 261.868 172.306 261.815 171.855 261.706C171.68 261.762 171.525 261.869 171.412 262.014C171.298 262.158 171.23 262.333 171.217 262.516C171.217 262.965 171.596 263.189 172.389 263.189H174.804C177.011 263.189 177.96 264.138 177.96 265.759C177.96 267.639 176.684 268.656 173.235 268.656ZM174.356 265.103H171.286C171.137 265.208 171.017 265.348 170.936 265.511C170.855 265.673 170.815 265.853 170.82 266.035C170.82 266.725 171.337 267.139 172.717 267.139H173.821C175.253 267.139 175.891 266.776 175.891 266.018C175.89 265.448 175.477 265.103 174.356 265.103ZM174.856 258.981V258.688C174.856 257.774 174.287 257.308 173.235 257.308C172.183 257.308 171.613 257.773 171.613 258.688V258.981C171.613 259.878 172.182 260.361 173.235 260.361C174.287 260.361 174.856 259.877 174.856 258.981Z" fill="white"/>
<path d="M159.452 265V252.962H164.867C167.092 252.962 168.437 254.462 168.437 256.688C168.437 258.93 167.092 260.413 164.867 260.413H161.729V265H159.452ZM161.729 258.446H164.661C164.847 258.469 165.037 258.45 165.215 258.39C165.393 258.33 165.556 258.231 165.691 258.101C165.827 257.971 165.931 257.812 165.998 257.636C166.064 257.46 166.09 257.271 166.075 257.084V256.291C166.09 256.104 166.063 255.916 165.996 255.742C165.93 255.567 165.825 255.409 165.689 255.28C165.554 255.151 165.391 255.054 165.213 254.996C165.035 254.938 164.846 254.921 164.661 254.945H161.729V258.446Z" fill="white"/>
<path d="M152.202 305H146.504V295.228H148.352V303.362H152.202V305ZM156.67 305.168C154.514 305.168 153.226 303.67 153.226 301.332C153.226 299.022 154.472 297.524 156.614 297.524C158.896 297.524 159.946 299.204 159.946 301.206V301.794H155.088V301.976C155.088 303.026 155.69 303.74 156.866 303.74C157.748 303.74 158.28 303.32 158.728 302.746L159.694 303.824C159.092 304.65 158.028 305.168 156.67 305.168ZM156.642 298.868C155.704 298.868 155.088 299.568 155.088 300.576V300.688H158.084V300.562C158.084 299.554 157.566 298.868 156.642 298.868ZM163.489 305.168C162.005 305.168 161.165 304.314 161.165 303.012C161.165 301.514 162.299 300.772 164.287 300.772H165.533V300.24C165.533 299.428 165.127 298.952 164.175 298.952C163.335 298.952 162.859 299.372 162.509 299.876L161.445 298.924C161.977 298.084 162.831 297.524 164.301 297.524C166.275 297.524 167.325 298.462 167.325 300.128V303.572H168.053V305H167.059C166.289 305 165.813 304.496 165.701 303.74H165.617C165.379 304.678 164.581 305.168 163.489 305.168ZM164.091 303.866C164.889 303.866 165.533 303.502 165.533 302.816V301.85H164.385C163.447 301.85 162.985 302.172 162.985 302.746V302.984C162.985 303.572 163.391 303.866 164.091 303.866ZM174.199 305V303.782H174.129C173.863 304.608 173.079 305.168 172.113 305.168C170.279 305.168 169.257 303.782 169.257 301.332C169.257 298.896 170.279 297.524 172.113 297.524C173.079 297.524 173.877 298.056 174.129 298.896H174.199V294.64H175.991V305H174.199ZM172.687 303.684C173.541 303.684 174.199 303.25 174.199 302.494V300.17C174.199 299.456 173.541 298.994 172.687 298.994C171.763 298.994 171.133 299.68 171.133 300.716V301.976C171.133 303.012 171.763 303.684 172.687 303.684ZM181.171 305.168C179.015 305.168 177.727 303.67 177.727 301.332C177.727 299.022 178.973 297.524 181.115 297.524C183.397 297.524 184.447 299.204 184.447 301.206V301.794H179.589V301.976C179.589 303.026 180.191 303.74 181.367 303.74C182.249 303.74 182.781 303.32 183.229 302.746L184.195 303.824C183.593 304.65 182.529 305.168 181.171 305.168ZM181.143 298.868C180.205 298.868 179.589 299.568 179.589 300.576V300.688H182.585V300.562C182.585 299.554 182.067 298.868 181.143 298.868ZM187.976 305H186.184V297.692H187.976V299.204H188.046C188.228 298.434 188.816 297.692 189.978 297.692H190.37V299.386H189.81C188.606 299.386 187.976 299.722 187.976 300.52V305Z" fill="black"/>
<rect width="208" height="192" transform="translate(288 176)" fill="white"/>
<rect x="288" y="176" width="208" height="192" fill="white"/>
<g clip-path="url(#clip4_571_10292)">
<path d="M351.854 203.362V205H344.532V203.348L349.586 196.866H344.784V195.228H351.714V196.88L346.646 203.362H351.854ZM356.407 205.168C354.32 205.168 353.018 203.684 353.018 201.332C353.018 198.994 354.32 197.524 356.407 197.524C358.507 197.524 359.809 198.994 359.809 201.332C359.809 203.684 358.507 205.168 356.407 205.168ZM356.407 203.726C357.345 203.726 357.933 203.124 357.933 202.018V200.66C357.933 199.568 357.345 198.966 356.407 198.966C355.482 198.966 354.894 199.568 354.894 200.66V202.018C354.894 203.124 355.482 203.726 356.407 203.726ZM363.349 205H361.557V197.692H363.349V198.91H363.419C363.713 198.126 364.329 197.524 365.463 197.524C366.961 197.524 367.801 198.56 367.801 200.38V205H366.009V200.562C366.009 199.526 365.659 198.994 364.805 198.994C364.063 198.994 363.349 199.386 363.349 200.17V205ZM372.902 205.168C370.746 205.168 369.458 203.67 369.458 201.332C369.458 199.022 370.704 197.524 372.846 197.524C375.128 197.524 376.178 199.204 376.178 201.206V201.794H371.32V201.976C371.32 203.026 371.922 203.74 373.098 203.74C373.98 203.74 374.512 203.32 374.96 202.746L375.926 203.824C375.324 204.65 374.26 205.168 372.902 205.168ZM372.874 198.868C371.936 198.868 371.32 199.568 371.32 200.576V200.688H374.316V200.562C374.316 199.554 373.798 198.868 372.874 198.868ZM387.991 203.446V205H381.215V203.292L384.281 200.604C385.317 199.694 385.793 199.022 385.793 198.168V197.986C385.793 197.132 385.149 196.656 384.351 196.656C383.343 196.656 382.867 197.314 382.643 198.112L381.047 197.496C381.467 196.194 382.517 195.06 384.505 195.06C386.563 195.06 387.739 196.292 387.739 197.972C387.739 199.596 386.633 200.632 385.275 201.752L383.217 203.446H387.991Z" fill="black"/>
<rect width="24" height="24" transform="translate(304 188)" fill="white" fill-opacity="0.01" style="mix-blend-mode:multiply"/>
<path d="M325 195.5H321.25V192.5C321.25 192.102 321.091 191.721 320.81 191.44C320.529 191.159 320.148 191 319.75 191H312.25C311.852 191 311.471 191.159 311.19 191.44C310.909 191.721 310.75 192.102 310.75 192.5V195.5H307C306.602 195.5 306.221 195.659 305.94 195.94C305.659 196.221 305.5 196.602 305.5 197V209C305.5 209.398 305.659 209.779 305.94 210.06C306.221 210.341 306.602 210.5 307 210.5H325C325.398 210.5 325.779 210.341 326.06 210.06C326.341 209.779 326.5 209.398 326.5 209V197C326.5 196.602 326.341 196.221 326.06 195.94C325.779 195.659 325.398 195.5 325 195.5ZM307 209V197H310.75V198.5H309.25V200H310.75V201.5H309.25V203H310.75V204.5H309.25V206H310.75V209H307ZM319.75 209H312.25V192.5H319.75V209ZM325 209H321.25V206H322.75V204.5H321.25V203H322.75V201.5H321.25V200H322.75V198.5H321.25V197H325V209Z" fill="black"/>
<path d="M317.5 194H314.5V195.5H317.5V194Z" fill="black"/>
<path d="M317.5 197H314.5V198.5H317.5V197Z" fill="black"/>
<path d="M317.5 200H314.5V201.5H317.5V200Z" fill="black"/>
</g>
<path d="M294 176V176.5H298V176H302V176.5H306V176H310V176.5H314V176H318V176.5H322V176H326V176.5H330V176H334V176.5H338V176H342V176.5H346V176H350V176.5H354V176H358V176.5H362V176H366V176.5H370V176H374V176.5H378V176H382V176.5H386V176H390V176.5H394V176H398V176.5H402V176H406V176.5H410V176H414V176.5H418V176H422V176.5H426V176H430V176.5H434V176H438V176.5H442V176H446V176.5H450V176H454V176.5H458V176H462V176.5H466V176H470V176.5H474V176H478V176.5H482V176H486V176.5H490V176H494V176.5H495.5V178H496V182H495.5V186H496V190H495.5V194H496V198H495.5V202H496V206H495.5V210H496V214H495.5V218H496V222H495.5V226H496V230H495.5V234H496V238H495.5V242H496V246H495.5V250H496V254H495.5V258H496V262H495.5V266H496V270H495.5V274H496V278H495.5V282H496V286H495.5V290H496V294H495.5V298H496V302H495.5V306H496V310H495.5V314H496V318H495.5V322H496V326H495.5V330H496V334H495.5V338H496V342H495.5V346H496V350H495.5V354H496V358H495.5V362H496V366H495.5V367.5H494V368H490V367.5H486V368H482V367.5H478V368H474V367.5H470V368H466V367.5H462V368H458V367.5H454V368H450V367.5H446V368H442V367.5H438V368H434V367.5H430V368H426V367.5H422V368H418V367.5H414V368H410V367.5H406V368H402V367.5H398V368H394V367.5H390V368H386V367.5H382V368H378V367.5H374V368H370V367.5H366V368H362V367.5H358V368H354V367.5H350V368H346V367.5H342V368H338V367.5H334V368H330V367.5H326V368H322V367.5H318V368H314V367.5H310V368H306V367.5H302V368H298V367.5H294V368H290V367.5H288.5V366H288V362H288.5V358H288V354H288.5V350H288V346H288.5V342H288V338H288.5V334H288V330H288.5V326H288V322H288.5V318H288V314H288.5V310H288V306H288.5V302H288V298H288.5V294H288V290H288.5V286H288V282H288.5V278H288V274H288.5V270H288V266H288.5V262H288V258H288.5V254H288V250H288.5V246H288V242H288.5V238H288V234H288.5V230H288V226H288.5V222H288V218H288.5V214H288V210H288.5V206H288V202H288.5V198H288V194H288.5V190H288V186H288.5V182H288V178H288.5V176.5H290V176H294Z" stroke="black" stroke-dasharray="4 4"/>
<rect width="80" height="80" transform="translate(352 232)" fill="white" fill-opacity="0.01" style="mix-blend-mode:multiply"/>
<path d="M376 235H408C412.418 235 416 238.582 416 243V275C416 279.418 412.418 283 408 283H376C371.582 283 368 279.418 368 275V243C368 238.582 371.582 235 376 235Z" fill="#0F62FE"/>
<rect width="24" height="24" transform="translate(380 247)" fill="white" fill-opacity="0.01"/>
<path d="M397.235 268.656C394.199 268.656 393.044 267.863 393.044 266.535C393.035 266.316 393.07 266.098 393.146 265.892C393.222 265.687 393.337 265.498 393.487 265.338C393.636 265.178 393.815 265.048 394.014 264.958C394.214 264.867 394.429 264.817 394.648 264.81V264.62C394.31 264.545 394.01 264.353 393.799 264.079C393.588 263.805 393.479 263.466 393.492 263.12C393.492 262.189 394.285 261.723 395.148 261.533V261.464C394.641 261.246 394.212 260.878 393.919 260.409C393.627 259.941 393.484 259.395 393.509 258.843C393.509 257.015 394.803 255.79 397.235 255.79C397.767 255.781 398.296 255.857 398.804 256.015V255.721C398.778 255.546 398.793 255.368 398.848 255.199C398.902 255.031 398.994 254.877 399.118 254.75C399.241 254.624 399.393 254.527 399.559 254.468C399.726 254.409 399.905 254.389 400.08 254.411H401.477V256.101H399.563V256.342C400.007 256.586 400.374 256.949 400.621 257.392C400.868 257.834 400.985 258.337 400.96 258.843C400.96 260.654 399.683 261.861 397.235 261.861C396.77 261.868 396.306 261.815 395.855 261.706C395.68 261.762 395.525 261.869 395.412 262.014C395.298 262.158 395.23 262.333 395.217 262.516C395.217 262.965 395.596 263.189 396.389 263.189H398.804C401.011 263.189 401.96 264.138 401.96 265.759C401.96 267.639 400.684 268.656 397.235 268.656ZM398.356 265.103H395.286C395.137 265.208 395.017 265.348 394.936 265.511C394.855 265.673 394.815 265.853 394.82 266.035C394.82 266.725 395.337 267.139 396.717 267.139H397.821C399.253 267.139 399.891 266.776 399.891 266.018C399.89 265.448 399.477 265.103 398.356 265.103ZM398.856 258.981V258.688C398.856 257.774 398.287 257.308 397.235 257.308C396.183 257.308 395.613 257.773 395.613 258.688V258.981C395.613 259.878 396.182 260.361 397.235 260.361C398.287 260.361 398.856 259.877 398.856 258.981Z" fill="white"/>
<path d="M383.452 265V252.962H388.867C391.092 252.962 392.437 254.462 392.437 256.688C392.437 258.93 391.092 260.413 388.867 260.413H385.729V265H383.452ZM385.729 258.446H388.661C388.847 258.469 389.037 258.45 389.215 258.39C389.393 258.33 389.556 258.231 389.691 258.101C389.827 257.971 389.931 257.812 389.998 257.636C390.064 257.46 390.09 257.271 390.075 257.084V256.291C390.09 256.104 390.063 255.916 389.996 255.742C389.93 255.567 389.825 255.409 389.689 255.28C389.554 255.151 389.391 255.054 389.213 254.996C389.035 254.938 388.846 254.921 388.661 254.945H385.729V258.446Z" fill="white"/>
<path d="M366.388 305H364.54V295.228H370.826V296.866H366.388V299.232H370.252V300.87H366.388V305ZM375.142 305.168C373.056 305.168 371.754 303.684 371.754 301.332C371.754 298.994 373.056 297.524 375.142 297.524C377.242 297.524 378.544 298.994 378.544 301.332C378.544 303.684 377.242 305.168 375.142 305.168ZM375.142 303.726C376.08 303.726 376.668 303.124 376.668 302.018V300.66C376.668 299.568 376.08 298.966 375.142 298.966C374.218 298.966 373.63 299.568 373.63 300.66V302.018C373.63 303.124 374.218 303.726 375.142 303.726ZM383.051 305H382.085C380.867 305 380.293 304.356 380.293 303.236V294.64H382.085V303.572H383.051V305ZM387.231 305H386.265C385.047 305 384.473 304.356 384.473 303.236V294.64H386.265V303.572H387.231V305ZM391.646 305.168C389.56 305.168 388.258 303.684 388.258 301.332C388.258 298.994 389.56 297.524 391.646 297.524C393.746 297.524 395.048 298.994 395.048 301.332C395.048 303.684 393.746 305.168 391.646 305.168ZM391.646 303.726C392.584 303.726 393.172 303.124 393.172 302.018V300.66C393.172 299.568 392.584 298.966 391.646 298.966C390.722 298.966 390.134 299.568 390.134 300.66V302.018C390.134 303.124 390.722 303.726 391.646 303.726ZM397.975 305L395.959 297.692H397.681L398.423 300.702L398.997 303.208H399.053L399.725 300.702L400.579 297.692H402.203L403.085 300.702L403.771 303.208H403.827L404.401 300.702L405.129 297.692H406.795L404.793 305H402.861L401.923 301.78L401.377 299.792H401.335L400.803 301.78L399.879 305H397.975ZM411.135 305.168C408.979 305.168 407.691 303.67 407.691 301.332C407.691 299.022 408.937 297.524 411.079 297.524C413.361 297.524 414.411 299.204 414.411 301.206V301.794H409.553V301.976C409.553 303.026 410.155 303.74 411.331 303.74C412.213 303.74 412.745 303.32 413.193 302.746L414.159 303.824C413.557 304.65 412.493 305.168 411.135 305.168ZM411.107 298.868C410.169 298.868 409.553 299.568 409.553 300.576V300.688H412.549V300.562C412.549 299.554 412.031 298.868 411.107 298.868ZM417.94 305H416.148V297.692H417.94V299.204H418.01C418.192 298.434 418.78 297.692 419.942 297.692H420.334V299.386H419.774C418.57 299.386 417.94 299.722 417.94 300.52V305Z" fill="black"/>
<rect width="208" height="192" transform="translate(512 176)" fill="white"/>
<rect x="512" y="176" width="208" height="192" fill="white"/>
<g clip-path="url(#clip5_571_10292)">
<path d="M575.854 203.362V205H568.532V203.348L573.586 196.866H568.784V195.228H575.714V196.88L570.646 203.362H575.854ZM580.407 205.168C578.32 205.168 577.018 203.684 577.018 201.332C577.018 198.994 578.32 197.524 580.407 197.524C582.507 197.524 583.809 198.994 583.809 201.332C583.809 203.684 582.507 205.168 580.407 205.168ZM580.407 203.726C581.345 203.726 581.933 203.124 581.933 202.018V200.66C581.933 199.568 581.345 198.966 580.407 198.966C579.482 198.966 578.894 199.568 578.894 200.66V202.018C578.894 203.124 579.482 203.726 580.407 203.726ZM587.349 205H585.557V197.692H587.349V198.91H587.419C587.713 198.126 588.329 197.524 589.463 197.524C590.961 197.524 591.801 198.56 591.801 200.38V205H590.009V200.562C590.009 199.526 589.659 198.994 588.805 198.994C588.063 198.994 587.349 199.386 587.349 200.17V205ZM596.902 205.168C594.746 205.168 593.458 203.67 593.458 201.332C593.458 199.022 594.704 197.524 596.846 197.524C599.128 197.524 600.178 199.204 600.178 201.206V201.794H595.32V201.976C595.32 203.026 595.922 203.74 597.098 203.74C597.98 203.74 598.512 203.32 598.96 202.746L599.926 203.824C599.324 204.65 598.26 205.168 596.902 205.168ZM596.874 198.868C595.936 198.868 595.32 199.568 595.32 200.576V200.688H598.316V200.562C598.316 199.554 597.798 198.868 596.874 198.868ZM607.049 199.176H608.015C609.135 199.176 609.653 198.658 609.653 197.958V197.86C609.653 197.062 609.093 196.572 608.211 196.572C607.357 196.572 606.685 197.006 606.209 197.748L605.033 196.684C605.691 195.774 606.615 195.06 608.267 195.06C610.241 195.06 611.585 196.04 611.585 197.608C611.585 198.868 610.731 199.624 609.709 199.834V199.918C610.843 200.128 611.753 200.912 611.753 202.298C611.753 204.02 610.311 205.168 608.155 205.168C606.251 205.168 605.299 204.3 604.683 203.348L606.041 202.312C606.475 203.096 607.063 203.656 608.155 203.656C609.233 203.656 609.835 203.096 609.835 202.186V202.088C609.835 201.192 609.177 200.716 608.015 200.716H607.049V199.176Z" fill="black"/>
<rect width="24" height="24" transform="translate(528 188)" fill="white" fill-opacity="0.01" style="mix-blend-mode:multiply"/>
<path d="M549 195.5H545.25V192.5C545.25 192.102 545.091 191.721 544.81 191.44C544.529 191.159 544.148 191 543.75 191H536.25C535.852 191 535.471 191.159 535.19 191.44C534.909 191.721 534.75 192.102 534.75 192.5V195.5H531C530.602 195.5 530.221 195.659 529.94 195.94C529.659 196.221 529.5 196.602 529.5 197V209C529.5 209.398 529.659 209.779 529.94 210.06C530.221 210.341 530.602 210.5 531 210.5H549C549.398 210.5 549.779 210.341 550.06 210.06C550.341 209.779 550.5 209.398 550.5 209V197C550.5 196.602 550.341 196.221 550.06 195.94C549.779 195.659 549.398 195.5 549 195.5ZM531 209V197H534.75V198.5H533.25V200H534.75V201.5H533.25V203H534.75V204.5H533.25V206H534.75V209H531ZM543.75 209H536.25V192.5H543.75V209ZM549 209H545.25V206H546.75V204.5H545.25V203H546.75V201.5H545.25V200H546.75V198.5H545.25V197H549V209Z" fill="black"/>
<path d="M541.5 194H538.5V195.5H541.5V194Z" fill="black"/>
<path d="M541.5 197H538.5V198.5H541.5V197Z" fill="black"/>
<path d="M541.5 200H538.5V201.5H541.5V200Z" fill="black"/>
</g>
<path d="M518 176V176.5H522V176H526V176.5H530V176H534V176.5H538V176H542V176.5H546V176H550V176.5H554V176H558V176.5H562V176H566V176.5H570V176H574V176.5H578V176H582V176.5H586V176H590V176.5H594V176H598V176.5H602V176H606V176.5H610V176H614V176.5H618V176H622V176.5H626V176H630V176.5H634V176H638V176.5H642V176H646V176.5H650V176H654V176.5H658V176H662V176.5H666V176H670V176.5H674V176H678V176.5H682V176H686V176.5H690V176H694V176.5H698V176H702V176.5H706V176H710V176.5H714V176H718V176.5H719.5V178H720V182H719.5V186H720V190H719.5V194H720V198H719.5V202H720V206H719.5V210H720V214H719.5V218H720V222H719.5V226H720V230H719.5V234H720V238H719.5V242H720V246H719.5V250H720V254H719.5V258H720V262H719.5V266H720V270H719.5V274H720V278H719.5V282H720V286H719.5V290H720V294H719.5V298H720V302H719.5V306H720V310H719.5V314H720V318H719.5V322H720V326H719.5V330H720V334H719.5V338H720V342H719.5V346H720V350H719.5V354H720V358H719.5V362H720V366H719.5V367.5H718V368H714V367.5H710V368H706V367.5H702V368H698V367.5H694V368H690V367.5H686V368H682V367.5H678V368H674V367.5H670V368H666V367.5H662V368H658V367.5H654V368H650V367.5H646V368H642V367.5H638V368H634V367.5H630V368H626V367.5H622V368H618V367.5H614V368H610V367.5H606V368H602V367.5H598V368H594V367.5H590V368H586V367.5H582V368H578V367.5H574V368H570V367.5H566V368H562V367.5H558V368H554V367.5H550V368H546V367.5H542V368H538V367.5H534V368H530V367.5H526V368H522V367.5H518V368H514V367.5H512.5V366H512V362H512.5V358H512V354H512.5V350H512V346H512.5V342H512V338H512.5V334H512V330H512.5V326H512V322H512.5V318H512V314H512.5V310H512V306H512.5V302H512V298H512.5V294H512V290H512.5V286H512V282H512.5V278H512V274H512.5V270H512V266H512.5V262H512V258H512.5V254H512V250H512.5V246H512V242H512.5V238H512V234H512.5V230H512V226H512.5V222H512V218H512.5V214H512V210H512.5V206H512V202H512.5V198H512V194H512.5V190H512V186H512.5V182H512V178H512.5V176.5H514V176H518Z" stroke="black" stroke-dasharray="4 4"/>
<rect width="208" height="192" transform="translate(64 512)" fill="white"/>
<rect x="64" y="512" width="208" height="192" fill="white"/>
<g clip-path="url(#clip6_571_10292)">
<path d="M127.854 539.362V541H120.532V539.348L125.586 532.866H120.784V531.228H127.714V532.88L122.646 539.362H127.854ZM132.407 541.168C130.32 541.168 129.018 539.684 129.018 537.332C129.018 534.994 130.32 533.524 132.407 533.524C134.507 533.524 135.809 534.994 135.809 537.332C135.809 539.684 134.507 541.168 132.407 541.168ZM132.407 539.726C133.345 539.726 133.933 539.124 133.933 538.018V536.66C133.933 535.568 133.345 534.966 132.407 534.966C131.482 534.966 130.894 535.568 130.894 536.66V538.018C130.894 539.124 131.482 539.726 132.407 539.726ZM139.349 541H137.557V533.692H139.349V534.91H139.419C139.713 534.126 140.329 533.524 141.463 533.524C142.961 533.524 143.801 534.56 143.801 536.38V541H142.009V536.562C142.009 535.526 141.659 534.994 140.805 534.994C140.063 534.994 139.349 535.386 139.349 536.17V541ZM148.902 541.168C146.746 541.168 145.458 539.67 145.458 537.332C145.458 535.022 146.704 533.524 148.846 533.524C151.128 533.524 152.178 535.204 152.178 537.206V537.794H147.32V537.976C147.32 539.026 147.922 539.74 149.098 539.74C149.98 539.74 150.512 539.32 150.96 538.746L151.926 539.824C151.324 540.65 150.26 541.168 148.902 541.168ZM148.874 534.868C147.936 534.868 147.32 535.568 147.32 536.576V536.688H150.316V536.562C150.316 535.554 149.798 534.868 148.874 534.868ZM164.355 541H157.621V539.502H160.309V532.558H160.183L158.055 535.078L156.907 534.112L159.329 531.228H162.115V539.502H164.355V541Z" fill="black"/>
<rect width="24" height="24" transform="translate(80 524)" fill="white" fill-opacity="0.01" style="mix-blend-mode:multiply"/>
<path d="M101 531.5H97.25V528.5C97.2495 528.102 97.0914 527.721 96.8102 527.44C96.529 527.159 96.1477 527 95.75 527H88.25C87.8523 527 87.4711 527.159 87.1898 527.44C86.9086 527.721 86.7505 528.102 86.75 528.5V531.5H83C82.6023 531.5 82.221 531.659 81.9398 531.94C81.6586 532.221 81.5005 532.602 81.5 533V545C81.5005 545.398 81.6586 545.779 81.9398 546.06C82.221 546.341 82.6023 546.5 83 546.5H101C101.398 546.5 101.779 546.341 102.06 546.06C102.341 545.779 102.5 545.398 102.5 545V533C102.5 532.602 102.341 532.221 102.06 531.94C101.779 531.659 101.398 531.5 101 531.5ZM83 545V533H86.75V534.5H85.25V536H86.75V537.5H85.25V539H86.75V540.5H85.25V542H86.75V545H83ZM95.75 545H88.25V528.5H95.75V545ZM101 545H97.25V542H98.75V540.5H97.25V539H98.75V537.5H97.25V536H98.75V534.5H97.25V533H101V545Z" fill="black"/>
<path d="M93.5 530H90.5V531.5H93.5V530Z" fill="black"/>
<path d="M93.5 533H90.5V534.5H93.5V533Z" fill="black"/>
<path d="M93.5 536H90.5V537.5H93.5V536Z" fill="black"/>
</g>
<path d="M70 512V512.5H74V512H78V512.5H82V512H86V512.5H90V512H94V512.5H98V512H102V512.5H106V512H110V512.5H114V512H118V512.5H122V512H126V512.5H130V512H134V512.5H138V512H142V512.5H146V512H150V512.5H154V512H158V512.5H162V512H166V512.5H170V512H174V512.5H178V512H182V512.5H186V512H190V512.5H194V512H198V512.5H202V512H206V512.5H210V512H214V512.5H218V512H222V512.5H226V512H230V512.5H234V512H238V512.5H242V512H246V512.5H250V512H254V512.5H258V512H262V512.5H266V512H270V512.5H271.5V514H272V518H271.5V522H272V526H271.5V530H272V534H271.5V538H272V542H271.5V546H272V550H271.5V554H272V558H271.5V562H272V566H271.5V570H272V574H271.5V578H272V582H271.5V586H272V590H271.5V594H272V598H271.5V602H272V606H271.5V610H272V614H271.5V618H272V622H271.5V626H272V630H271.5V634H272V638H271.5V642H272V646H271.5V650H272V654H271.5V658H272V662H271.5V666H272V670H271.5V674H272V678H271.5V682H272V686H271.5V690H272V694H271.5V698H272V702H271.5V703.5H270V704H266V703.5H262V704H258V703.5H254V704H250V703.5H246V704H242V703.5H238V704H234V703.5H230V704H226V703.5H222V704H218V703.5H214V704H210V703.5H206V704H202V703.5H198V704H194V703.5H190V704H186V703.5H182V704H178V703.5H174V704H170V703.5H166V704H162V703.5H158V704H154V703.5H150V704H146V703.5H142V704H138V703.5H134V704H130V703.5H126V704H122V703.5H118V704H114V703.5H110V704H106V703.5H102V704H98V703.5H94V704H90V703.5H86V704H82V703.5H78V704H74V703.5H70V704H66V703.5H64.5V702H64V698H64.5V694H64V690H64.5V686H64V682H64.5V678H64V674H64.5V670H64V666H64.5V662H64V658H64.5V654H64V650H64.5V646H64V642H64.5V638H64V634H64.5V630H64V626H64.5V622H64V618H64.5V614H64V610H64.5V606H64V602H64.5V598H64V594H64.5V590H64V586H64.5V582H64V578H64.5V574H64V570H64.5V566H64V562H64.5V558H64V554H64.5V550H64V546H64.5V542H64V538H64.5V534H64V530H64.5V526H64V522H64.5V518H64V514H64.5V512.5H66V512H70Z" stroke="black" stroke-dasharray="4 4"/>
<rect width="80" height="80" transform="translate(128 568)" fill="white" fill-opacity="0.01" style="mix-blend-mode:multiply"/>
<path d="M152 571H184C188.418 571 192 574.582 192 579V611C192 615.418 188.418 619 184 619H152C147.582 619 144 615.418 144 611V579C144 574.582 147.582 571 152 571Z" fill="#0F62FE"/>
<rect width="24" height="24" transform="translate(156 583)" fill="white" fill-opacity="0.01"/>
<path d="M173.235 604.656C170.199 604.656 169.044 603.863 169.044 602.535C169.035 602.316 169.07 602.098 169.146 601.892C169.222 601.687 169.337 601.498 169.487 601.338C169.636 601.178 169.815 601.048 170.014 600.958C170.214 600.867 170.429 600.817 170.648 600.81V600.62C170.31 600.545 170.01 600.353 169.799 600.079C169.588 599.805 169.479 599.466 169.492 599.12C169.492 598.189 170.285 597.723 171.148 597.533V597.464C170.641 597.246 170.212 596.878 169.919 596.409C169.627 595.941 169.484 595.395 169.509 594.843C169.509 593.015 170.803 591.79 173.235 591.79C173.767 591.781 174.296 591.857 174.804 592.015V591.721C174.778 591.546 174.793 591.368 174.848 591.199C174.902 591.031 174.994 590.877 175.118 590.75C175.241 590.624 175.393 590.527 175.559 590.468C175.726 590.409 175.905 590.389 176.08 590.411H177.477V592.101H175.563V592.342C176.007 592.586 176.374 592.949 176.621 593.392C176.868 593.834 176.985 594.337 176.96 594.843C176.96 596.654 175.683 597.861 173.235 597.861C172.77 597.868 172.306 597.815 171.855 597.706C171.68 597.762 171.525 597.869 171.412 598.014C171.298 598.158 171.23 598.333 171.217 598.516C171.217 598.965 171.596 599.189 172.389 599.189H174.804C177.011 599.189 177.96 600.138 177.96 601.759C177.96 603.639 176.684 604.656 173.235 604.656ZM174.356 601.103H171.286C171.137 601.208 171.017 601.348 170.936 601.511C170.855 601.673 170.815 601.853 170.82 602.035C170.82 602.725 171.337 603.139 172.717 603.139H173.821C175.253 603.139 175.891 602.776 175.891 602.018C175.89 601.448 175.477 601.103 174.356 601.103ZM174.856 594.981V594.688C174.856 593.774 174.287 593.308 173.235 593.308C172.183 593.308 171.613 593.773 171.613 594.688V594.981C171.613 595.878 172.182 596.361 173.235 596.361C174.287 596.361 174.856 595.877 174.856 594.981Z" fill="white"/>
<path d="M159.452 601V588.962H164.867C167.092 588.962 168.437 590.462 168.437 592.688C168.437 594.93 167.092 596.413 164.867 596.413H161.729V601H159.452ZM161.729 594.446H164.661C164.847 594.469 165.037 594.45 165.215 594.39C165.393 594.33 165.556 594.231 165.691 594.101C165.827 593.971 165.931 593.812 165.998 593.636C166.064 593.46 166.09 593.271 166.075 593.084V592.291C166.09 592.104 166.063 591.916 165.996 591.742C165.93 591.567 165.825 591.409 165.689 591.28C165.554 591.151 165.391 591.054 165.213 590.996C165.035 590.938 164.846 590.921 164.661 590.945H161.729V594.446Z" fill="white"/>
<path d="M152.202 641H146.504V631.228H148.352V639.362H152.202V641ZM156.67 641.168C154.514 641.168 153.226 639.67 153.226 637.332C153.226 635.022 154.472 633.524 156.614 633.524C158.896 633.524 159.946 635.204 159.946 637.206V637.794H155.088V637.976C155.088 639.026 155.69 639.74 156.866 639.74C157.748 639.74 158.28 639.32 158.728 638.746L159.694 639.824C159.092 640.65 158.028 641.168 156.67 641.168ZM156.642 634.868C155.704 634.868 155.088 635.568 155.088 636.576V636.688H158.084V636.562C158.084 635.554 157.566 634.868 156.642 634.868ZM163.489 641.168C162.005 641.168 161.165 640.314 161.165 639.012C161.165 637.514 162.299 636.772 164.287 636.772H165.533V636.24C165.533 635.428 165.127 634.952 164.175 634.952C163.335 634.952 162.859 635.372 162.509 635.876L161.445 634.924C161.977 634.084 162.831 633.524 164.301 633.524C166.275 633.524 167.325 634.462 167.325 636.128V639.572H168.053V641H167.059C166.289 641 165.813 640.496 165.701 639.74H165.617C165.379 640.678 164.581 641.168 163.489 641.168ZM164.091 639.866C164.889 639.866 165.533 639.502 165.533 638.816V637.85H164.385C163.447 637.85 162.985 638.172 162.985 638.746V638.984C162.985 639.572 163.391 639.866 164.091 639.866ZM174.199 641V639.782H174.129C173.863 640.608 173.079 641.168 172.113 641.168C170.279 641.168 169.257 639.782 169.257 637.332C169.257 634.896 170.279 633.524 172.113 633.524C173.079 633.524 173.877 634.056 174.129 634.896H174.199V630.64H175.991V641H174.199ZM172.687 639.684C173.541 639.684 174.199 639.25 174.199 638.494V636.17C174.199 635.456 173.541 634.994 172.687 634.994C171.763 634.994 171.133 635.68 171.133 636.716V637.976C171.133 639.012 171.763 639.684 172.687 639.684ZM181.171 641.168C179.015 641.168 177.727 639.67 177.727 637.332C177.727 635.022 178.973 633.524 181.115 633.524C183.397 633.524 184.447 635.204 184.447 637.206V637.794H179.589V637.976C179.589 639.026 180.191 639.74 181.367 639.74C182.249 639.74 182.781 639.32 183.229 638.746L184.195 639.824C183.593 640.65 182.529 641.168 181.171 641.168ZM181.143 634.868C180.205 634.868 179.589 635.568 179.589 636.576V636.688H182.585V636.562C182.585 635.554 182.067 634.868 181.143 634.868ZM187.976 641H186.184V633.692H187.976V635.204H188.046C188.228 634.434 188.816 633.692 189.978 633.692H190.37V635.386H189.81C188.606 635.386 187.976 635.722 187.976 636.52V641Z" fill="black"/>
<rect width="208" height="192" transform="translate(288 512)" fill="white"/>
<rect x="288" y="512" width="208" height="192" fill="white"/>
<g clip-path="url(#clip7_571_10292)">
<path d="M351.854 539.362V541H344.532V539.348L349.586 532.866H344.784V531.228H351.714V532.88L346.646 539.362H351.854ZM356.407 541.168C354.32 541.168 353.018 539.684 353.018 537.332C353.018 534.994 354.32 533.524 356.407 533.524C358.507 533.524 359.809 534.994 359.809 537.332C359.809 539.684 358.507 541.168 356.407 541.168ZM356.407 539.726C357.345 539.726 357.933 539.124 357.933 538.018V536.66C357.933 535.568 357.345 534.966 356.407 534.966C355.482 534.966 354.894 535.568 354.894 536.66V538.018C354.894 539.124 355.482 539.726 356.407 539.726ZM363.349 541H361.557V533.692H363.349V534.91H363.419C363.713 534.126 364.329 533.524 365.463 533.524C366.961 533.524 367.801 534.56 367.801 536.38V541H366.009V536.562C366.009 535.526 365.659 534.994 364.805 534.994C364.063 534.994 363.349 535.386 363.349 536.17V541ZM372.902 541.168C370.746 541.168 369.458 539.67 369.458 537.332C369.458 535.022 370.704 533.524 372.846 533.524C375.128 533.524 376.178 535.204 376.178 537.206V537.794H371.32V537.976C371.32 539.026 371.922 539.74 373.098 539.74C373.98 539.74 374.512 539.32 374.96 538.746L375.926 539.824C375.324 540.65 374.26 541.168 372.902 541.168ZM372.874 534.868C371.936 534.868 371.32 535.568 371.32 536.576V536.688H374.316V536.562C374.316 535.554 373.798 534.868 372.874 534.868ZM387.991 539.446V541H381.215V539.292L384.281 536.604C385.317 535.694 385.793 535.022 385.793 534.168V533.986C385.793 533.132 385.149 532.656 384.351 532.656C383.343 532.656 382.867 533.314 382.643 534.112L381.047 533.496C381.467 532.194 382.517 531.06 384.505 531.06C386.563 531.06 387.739 532.292 387.739 533.972C387.739 535.596 386.633 536.632 385.275 537.752L383.217 539.446H387.991Z" fill="black"/>
<rect width="24" height="24" transform="translate(304 524)" fill="white" fill-opacity="0.01" style="mix-blend-mode:multiply"/>
<path d="M325 531.5H321.25V528.5C321.25 528.102 321.091 527.721 320.81 527.44C320.529 527.159 320.148 527 319.75 527H312.25C311.852 527 311.471 527.159 311.19 527.44C310.909 527.721 310.75 528.102 310.75 528.5V531.5H307C306.602 531.5 306.221 531.659 305.94 531.94C305.659 532.221 305.5 532.602 305.5 533V545C305.5 545.398 305.659 545.779 305.94 546.06C306.221 546.341 306.602 546.5 307 546.5H325C325.398 546.5 325.779 546.341 326.06 546.06C326.341 545.779 326.5 545.398 326.5 545V533C326.5 532.602 326.341 532.221 326.06 531.94C325.779 531.659 325.398 531.5 325 531.5ZM307 545V533H310.75V534.5H309.25V536H310.75V537.5H309.25V539H310.75V540.5H309.25V542H310.75V545H307ZM319.75 545H312.25V528.5H319.75V545ZM325 545H321.25V542H322.75V540.5H321.25V539H322.75V537.5H321.25V536H322.75V534.5H321.25V533H325V545Z" fill="black"/>
<path d="M317.5 530H314.5V531.5H317.5V530Z" fill="black"/>
<path d="M317.5 533H314.5V534.5H317.5V533Z" fill="black"/>
<path d="M317.5 536H314.5V537.5H317.5V536Z" fill="black"/>
</g>
<path d="M294 512V512.5H298V512H302V512.5H306V512H310V512.5H314V512H318V512.5H322V512H326V512.5H330V512H334V512.5H338V512H342V512.5H346V512H350V512.5H354V512H358V512.5H362V512H366V512.5H370V512H374V512.5H378V512H382V512.5H386V512H390V512.5H394V512H398V512.5H402V512H406V512.5H410V512H414V512.5H418V512H422V512.5H426V512H430V512.5H434V512H438V512.5H442V512H446V512.5H450V512H454V512.5H458V512H462V512.5H466V512H470V512.5H474V512H478V512.5H482V512H486V512.5H490V512H494V512.5H495.5V514H496V518H495.5V522H496V526H495.5V530H496V534H495.5V538H496V542H495.5V546H496V550H495.5V554H496V558H495.5V562H496V566H495.5V570H496V574H495.5V578H496V582H495.5V586H496V590H495.5V594H496V598H495.5V602H496V606H495.5V610H496V614H495.5V618H496V622H495.5V626H496V630H495.5V634H496V638H495.5V642H496V646H495.5V650H496V654H495.5V658H496V662H495.5V666H496V670H495.5V674H496V678H495.5V682H496V686H495.5V690H496V694H495.5V698H496V702H495.5V703.5H494V704H490V703.5H486V704H482V703.5H478V704H474V703.5H470V704H466V703.5H462V704H458V703.5H454V704H450V703.5H446V704H442V703.5H438V704H434V703.5H430V704H426V703.5H422V704H418V703.5H414V704H410V703.5H406V704H402V703.5H398V704H394V703.5H390V704H386V703.5H382V704H378V703.5H374V704H370V703.5H366V704H362V703.5H358V704H354V703.5H350V704H346V703.5H342V704H338V703.5H334V704H330V703.5H326V704H322V703.5H318V704H314V703.5H310V704H306V703.5H302V704H298V703.5H294V704H290V703.5H288.5V702H288V698H288.5V694H288V690H288.5V686H288V682H288.5V678H288V674H288.5V670H288V666H288.5V662H288V658H288.5V654H288V650H288.5V646H288V642H288.5V638H288V634H288.5V630H288V626H288.5V622H288V618H288.5V614H288V610H288.5V606H288V602H288.5V598H288V594H288.5V590H288V586H288.5V582H288V578H288.5V574H288V570H288.5V566H288V562H288.5V558H288V554H288.5V550H288V546H288.5V542H288V538H288.5V534H288V530H288.5V526H288V522H288.5V518H288V514H288.5V512.5H290V512H294Z" stroke="black" stroke-dasharray="4 4"/>
<rect width="80" height="80" transform="translate(352 568)" fill="white" fill-opacity="0.01" style="mix-blend-mode:multiply"/>
<path d="M376 571H408C412.418 571 416 574.582 416 579V611C416 615.418 412.418 619 408 619H376C371.582 619 368 615.418 368 611V579C368 574.582 371.582 571 376 571Z" fill="#0F62FE"/>
<rect width="24" height="24" transform="translate(380 583)" fill="white" fill-opacity="0.01"/>
<path d="M397.235 604.656C394.199 604.656 393.044 603.863 393.044 602.535C393.035 602.316 393.07 602.098 393.146 601.892C393.222 601.687 393.337 601.498 393.487 601.338C393.636 601.178 393.815 601.048 394.014 600.958C394.214 600.867 394.429 600.817 394.648 600.81V600.62C394.31 600.545 394.01 600.353 393.799 600.079C393.588 599.805 393.479 599.466 393.492 599.12C393.492 598.189 394.285 597.723 395.148 597.533V597.464C394.641 597.246 394.212 596.878 393.919 596.409C393.627 595.941 393.484 595.395 393.509 594.843C393.509 593.015 394.803 591.79 397.235 591.79C397.767 591.781 398.296 591.857 398.804 592.015V591.721C398.778 591.546 398.793 591.368 398.848 591.199C398.902 591.031 398.994 590.877 399.118 590.75C399.241 590.624 399.393 590.527 399.559 590.468C399.726 590.409 399.905 590.389 400.08 590.411H401.477V592.101H399.563V592.342C400.007 592.586 400.374 592.949 400.621 593.392C400.868 593.834 400.985 594.337 400.96 594.843C400.96 596.654 399.683 597.861 397.235 597.861C396.77 597.868 396.306 597.815 395.855 597.706C395.68 597.762 395.525 597.869 395.412 598.014C395.298 598.158 395.23 598.333 395.217 598.516C395.217 598.965 395.596 599.189 396.389 599.189H398.804C401.011 599.189 401.96 600.138 401.96 601.759C401.96 603.639 400.684 604.656 397.235 604.656ZM398.356 601.103H395.286C395.137 601.208 395.017 601.348 394.936 601.511C394.855 601.673 394.815 601.853 394.82 602.035C394.82 602.725 395.337 603.139 396.717 603.139H397.821C399.253 603.139 399.891 602.776 399.891 602.018C399.89 601.448 399.477 601.103 398.356 601.103ZM398.856 594.981V594.688C398.856 593.774 398.287 593.308 397.235 593.308C396.183 593.308 395.613 593.773 395.613 594.688V594.981C395.613 595.878 396.182 596.361 397.235 596.361C398.287 596.361 398.856 595.877 398.856 594.981Z" fill="white"/>
<path d="M383.452 601V588.962H388.867C391.092 588.962 392.437 590.462 392.437 592.688C392.437 594.93 391.092 596.413 388.867 596.413H385.729V601H383.452ZM385.729 594.446H388.661C388.847 594.469 389.037 594.45 389.215 594.39C389.393 594.33 389.556 594.231 389.691 594.101C389.827 593.971 389.931 593.812 389.998 593.636C390.064 593.46 390.09 593.271 390.075 593.084V592.291C390.09 592.104 390.063 591.916 389.996 591.742C389.93 591.567 389.825 591.409 389.689 591.28C389.554 591.151 389.391 591.054 389.213 590.996C389.035 590.938 388.846 590.921 388.661 590.945H385.729V594.446Z" fill="white"/>
<path d="M366.388 641H364.54V631.228H370.826V632.866H366.388V635.232H370.252V636.87H366.388V641ZM375.142 641.168C373.056 641.168 371.754 639.684 371.754 637.332C371.754 634.994 373.056 633.524 375.142 633.524C377.242 633.524 378.544 634.994 378.544 637.332C378.544 639.684 377.242 641.168 375.142 641.168ZM375.142 639.726C376.08 639.726 376.668 639.124 376.668 638.018V636.66C376.668 635.568 376.08 634.966 375.142 634.966C374.218 634.966 373.63 635.568 373.63 636.66V638.018C373.63 639.124 374.218 639.726 375.142 639.726ZM383.051 641H382.085C380.867 641 380.293 640.356 380.293 639.236V630.64H382.085V639.572H383.051V641ZM387.231 641H386.265C385.047 641 384.473 640.356 384.473 639.236V630.64H386.265V639.572H387.231V641ZM391.646 641.168C389.56 641.168 388.258 639.684 388.258 637.332C388.258 634.994 389.56 633.524 391.646 633.524C393.746 633.524 395.048 634.994 395.048 637.332C395.048 639.684 393.746 641.168 391.646 641.168ZM391.646 639.726C392.584 639.726 393.172 639.124 393.172 638.018V636.66C393.172 635.568 392.584 634.966 391.646 634.966C390.722 634.966 390.134 635.568 390.134 636.66V638.018C390.134 639.124 390.722 639.726 391.646 639.726ZM397.975 641L395.959 633.692H397.681L398.423 636.702L398.997 639.208H399.053L399.725 636.702L400.579 633.692H402.203L403.085 636.702L403.771 639.208H403.827L404.401 636.702L405.129 633.692H406.795L404.793 641H402.861L401.923 637.78L401.377 635.792H401.335L400.803 637.78L399.879 641H397.975ZM411.135 641.168C408.979 641.168 407.691 639.67 407.691 637.332C407.691 635.022 408.937 633.524 411.079 633.524C413.361 633.524 414.411 635.204 414.411 637.206V637.794H409.553V637.976C409.553 639.026 410.155 639.74 411.331 639.74C412.213 639.74 412.745 639.32 413.193 638.746L414.159 639.824C413.557 640.65 412.493 641.168 411.135 641.168ZM411.107 634.868C410.169 634.868 409.553 635.568 409.553 636.576V636.688H412.549V636.562C412.549 635.554 412.031 634.868 411.107 634.868ZM417.94 641H416.148V633.692H417.94V635.204H418.01C418.192 634.434 418.78 633.692 419.942 633.692H420.334V635.386H419.774C418.57 635.386 417.94 635.722 417.94 636.52V641Z" fill="black"/>
<rect width="208" height="192" transform="translate(512 512)" fill="white"/>
<rect x="512" y="512" width="208" height="192" fill="white"/>
<g clip-path="url(#clip8_571_10292)">
<path d="M575.854 539.362V541H568.532V539.348L573.586 532.866H568.784V531.228H575.714V532.88L570.646 539.362H575.854ZM580.407 541.168C578.32 541.168 577.018 539.684 577.018 537.332C577.018 534.994 578.32 533.524 580.407 533.524C582.507 533.524 583.809 534.994 583.809 537.332C583.809 539.684 582.507 541.168 580.407 541.168ZM580.407 539.726C581.345 539.726 581.933 539.124 581.933 538.018V536.66C581.933 535.568 581.345 534.966 580.407 534.966C579.482 534.966 578.894 535.568 578.894 536.66V538.018C578.894 539.124 579.482 539.726 580.407 539.726ZM587.349 541H585.557V533.692H587.349V534.91H587.419C587.713 534.126 588.329 533.524 589.463 533.524C590.961 533.524 591.801 534.56 591.801 536.38V541H590.009V536.562C590.009 535.526 589.659 534.994 588.805 534.994C588.063 534.994 587.349 535.386 587.349 536.17V541ZM596.902 541.168C594.746 541.168 593.458 539.67 593.458 537.332C593.458 535.022 594.704 533.524 596.846 533.524C599.128 533.524 600.178 535.204 600.178 537.206V537.794H595.32V537.976C595.32 539.026 595.922 539.74 597.098 539.74C597.98 539.74 598.512 539.32 598.96 538.746L599.926 539.824C599.324 540.65 598.26 541.168 596.902 541.168ZM596.874 534.868C595.936 534.868 595.32 535.568 595.32 536.576V536.688H598.316V536.562C598.316 535.554 597.798 534.868 596.874 534.868ZM607.049 535.176H608.015C609.135 535.176 609.653 534.658 609.653 533.958V533.86C609.653 533.062 609.093 532.572 608.211 532.572C607.357 532.572 606.685 533.006 606.209 533.748L605.033 532.684C605.691 531.774 606.615 531.06 608.267 531.06C610.241 531.06 611.585 532.04 611.585 533.608C611.585 534.868 610.731 535.624 609.709 535.834V535.918C610.843 536.128 611.753 536.912 611.753 538.298C611.753 540.02 610.311 541.168 608.155 541.168C606.251 541.168 605.299 540.3 604.683 539.348L606.041 538.312C606.475 539.096 607.063 539.656 608.155 539.656C609.233 539.656 609.835 539.096 609.835 538.186V538.088C609.835 537.192 609.177 536.716 608.015 536.716H607.049V535.176Z" fill="black"/>
<rect width="24" height="24" transform="translate(528 524)" fill="white" fill-opacity="0.01" style="mix-blend-mode:multiply"/>
<path d="M549 531.5H545.25V528.5C545.25 528.102 545.091 527.721 544.81 527.44C544.529 527.159 544.148 527 543.75 527H536.25C535.852 527 535.471 527.159 535.19 527.44C534.909 527.721 534.75 528.102 534.75 528.5V531.5H531C530.602 531.5 530.221 531.659 529.94 531.94C529.659 532.221 529.5 532.602 529.5 533V545C529.5 545.398 529.659 545.779 529.94 546.06C530.221 546.341 530.602 546.5 531 546.5H549C549.398 546.5 549.779 546.341 550.06 546.06C550.341 545.779 550.5 545.398 550.5 545V533C550.5 532.602 550.341 532.221 550.06 531.94C549.779 531.659 549.398 531.5 549 531.5ZM531 545V533H534.75V534.5H533.25V536H534.75V537.5H533.25V539H534.75V540.5H533.25V542H534.75V545H531ZM543.75 545H536.25V528.5H543.75V545ZM549 545H545.25V542H546.75V540.5H545.25V539H546.75V537.5H545.25V536H546.75V534.5H545.25V533H549V545Z" fill="black"/>
<path d="M541.5 530H538.5V531.5H541.5V530Z" fill="black"/>
<path d="M541.5 533H538.5V534.5H541.5V533Z" fill="black"/>
<path d="M541.5 536H538.5V537.5H541.5V536Z" fill="black"/>
</g>
<path d="M518 512V512.5H522V512H526V512.5H530V512H534V512.5H538V512H542V512.5H546V512H550V512.5H554V512H558V512.5H562V512H566V512.5H570V512H574V512.5H578V512H582V512.5H586V512H590V512.5H594V512H598V512.5H602V512H606V512.5H610V512H614V512.5H618V512H622V512.5H626V512H630V512.5H634V512H638V512.5H642V512H646V512.5H650V512H654V512.5H658V512H662V512.5H666V512H670V512.5H674V512H678V512.5H682V512H686V512.5H690V512H694V512.5H698V512H702V512.5H706V512H710V512.5H714V512H718V512.5H719.5V514H720V518H719.5V522H720V526H719.5V530H720V534H719.5V538H720V542H719.5V546H720V550H719.5V554H720V558H719.5V562H720V566H719.5V570H720V574H719.5V578H720V582H719.5V586H720V590H719.5V594H720V598H719.5V602H720V606H719.5V610H720V614H719.5V618H720V622H719.5V626H720V630H719.5V634H720V638H719.5V642H720V646H719.5V650H720V654H719.5V658H720V662H719.5V666H720V670H719.5V674H720V678H719.5V682H720V686H719.5V690H720V694H719.5V698H720V702H719.5V703.5H718V704H714V703.5H710V704H706V703.5H702V704H698V703.5H694V704H690V703.5H686V704H682V703.5H678V704H674V703.5H670V704H666V703.5H662V704H658V703.5H654V704H650V703.5H646V704H642V703.5H638V704H634V703.5H630V704H626V703.5H622V704H618V703.5H614V704H610V703.5H606V704H602V703.5H598V704H594V703.5H590V704H586V703.5H582V704H578V703.5H574V704H570V703.5H566V704H562V703.5H558V704H554V703.5H550V704H546V703.5H542V704H538V703.5H534V704H530V703.5H526V704H522V703.5H518V704H514V703.5H512.5V702H512V698H512.5V694H512V690H512.5V686H512V682H512.5V678H512V674H512.5V670H512V666H512.5V662H512V658H512.5V654H512V650H512.5V646H512V642H512.5V638H512V634H512.5V630H512V626H512.5V622H512V618H512.5V614H512V610H512.5V606H512V602H512.5V598H512V594H512.5V590H512V586H512.5V582H512V578H512.5V574H512V570H512.5V566H512V562H512.5V558H512V554H512.5V550H512V546H512.5V542H512V538H512.5V534H512V530H512.5V526H512V522H512.5V518H512V514H512.5V512.5H514V512H518Z" stroke="black" stroke-dasharray="4 4"/>
<rect x="768.5" y="176.5" width="207" height="527" stroke="#0F62FE"/>
<g clip-path="url(#clip9_571_10292)">
<path d="M825.148 205V195.228H829.67C831.28 195.228 832.26 196.222 832.26 197.734C832.26 199.218 831.406 199.778 830.51 199.834V199.918C831.364 199.932 832.624 200.534 832.624 202.2C832.624 203.768 831.546 205 830.104 205H825.148ZM826.996 200.814V203.432H829.572C830.272 203.432 830.692 203.054 830.692 202.368V201.892C830.692 201.206 830.272 200.814 829.572 200.814H826.996ZM826.996 196.796V199.302H829.278C829.95 199.302 830.342 198.91 830.342 198.266V197.832C830.342 197.174 829.95 196.796 829.278 196.796H826.996ZM836.285 205.168C834.801 205.168 833.961 204.314 833.961 203.012C833.961 201.514 835.095 200.772 837.083 200.772H838.329V200.24C838.329 199.428 837.923 198.952 836.971 198.952C836.131 198.952 835.655 199.372 835.305 199.876L834.241 198.924C834.773 198.084 835.627 197.524 837.097 197.524C839.071 197.524 840.121 198.462 840.121 200.128V203.572H840.849V205H839.855C839.085 205 838.609 204.496 838.497 203.74H838.413C838.175 204.678 837.377 205.168 836.285 205.168ZM836.887 203.866C837.685 203.866 838.329 203.502 838.329 202.816V201.85H837.181C836.243 201.85 835.781 202.172 835.781 202.746V202.984C835.781 203.572 836.187 203.866 836.887 203.866ZM845.344 205.168C843.188 205.168 841.97 203.684 841.97 201.332C841.97 198.994 843.188 197.524 845.344 197.524C846.814 197.524 847.78 198.224 848.214 199.372L846.744 200.03C846.576 199.414 846.114 198.966 845.344 198.966C844.35 198.966 843.846 199.666 843.846 200.688V202.018C843.846 203.04 844.35 203.726 845.344 203.726C846.198 203.726 846.618 203.236 846.884 202.578L848.256 203.236C847.78 204.524 846.758 205.168 845.344 205.168ZM849.797 205V194.64H851.589V200.884H851.659L852.625 199.568L854.263 197.692H856.293L853.773 200.52L856.559 205H854.431L852.555 201.724L851.589 202.774V205H849.797ZM862.05 205V203.782H861.98C861.728 204.51 861.14 205.168 859.936 205.168C858.438 205.168 857.598 204.132 857.598 202.312V197.692H859.39V202.13C859.39 203.138 859.768 203.684 860.622 203.684C861.336 203.684 862.05 203.306 862.05 202.522V197.692H863.842V205H862.05ZM866.072 207.8V197.692H867.864V198.896H867.92C868.186 198.056 868.97 197.524 869.936 197.524C871.784 197.524 872.806 198.896 872.806 201.332C872.806 203.782 871.784 205.168 869.936 205.168C868.97 205.168 868.2 204.608 867.92 203.782H867.864V207.8H866.072ZM869.362 203.684C870.286 203.684 870.93 203.012 870.93 201.976V200.716C870.93 199.68 870.286 198.994 869.362 198.994C868.508 198.994 867.864 199.456 867.864 200.17V202.494C867.864 203.25 868.508 203.684 869.362 203.684ZM877.021 205.168C875.635 205.168 874.725 204.664 873.997 203.824L875.089 202.76C875.621 203.376 876.265 203.754 877.091 203.754C877.945 203.754 878.309 203.432 878.309 202.914C878.309 202.494 878.057 202.228 877.413 202.144L876.685 202.046C875.117 201.85 874.249 201.164 874.249 199.834C874.249 198.42 875.355 197.524 877.021 197.524C878.449 197.524 879.177 197.944 879.877 198.672L878.827 199.722C878.407 199.274 877.791 198.938 877.077 198.938C876.307 198.938 875.971 199.246 875.971 199.694C875.971 200.184 876.237 200.408 876.923 200.52L877.665 200.618C879.261 200.842 880.031 201.556 880.031 202.774C880.031 204.188 878.841 205.168 877.021 205.168Z" fill="black"/>
<g clip-path="url(#clip10_571_10292)">
<rect width="24" height="24" transform="translate(784 188)" fill="white" fill-opacity="0.01" style="mix-blend-mode:multiply"/>
<path d="M803.366 195.593C803.039 193.879 802.124 192.333 800.78 191.22C799.435 190.108 797.745 189.5 796 189.5C794.255 189.5 792.565 190.108 791.22 191.22C789.876 192.333 788.961 193.879 788.634 195.593C787.25 195.84 786.009 196.596 785.156 197.713C784.302 198.829 783.898 200.225 784.022 201.625C784.146 203.025 784.791 204.328 785.828 205.276C786.865 206.225 788.22 206.751 789.625 206.75H790V205.25H789.625C788.556 205.251 787.528 204.836 786.759 204.093C785.99 203.35 785.539 202.338 785.503 201.269C785.466 200.201 785.846 199.16 786.562 198.366C787.279 197.572 788.276 197.088 789.342 197.015L789.97 196.972L790.037 196.347C790.198 194.878 790.895 193.519 791.995 192.533C793.096 191.546 794.522 191 796 191C797.478 191 798.904 191.546 800.005 192.533C801.105 193.519 801.803 194.878 801.963 196.347L802.031 196.972L802.658 197.015C803.725 197.088 804.721 197.572 805.438 198.366C806.154 199.16 806.534 200.201 806.497 201.269C806.461 202.338 806.01 203.35 805.241 204.093C804.472 204.836 803.444 205.251 802.375 205.25H802V206.75H802.375C803.78 206.751 805.135 206.225 806.172 205.276C807.209 204.328 807.854 203.025 807.978 201.625C808.102 200.225 807.698 198.83 806.844 197.713C805.991 196.596 804.75 195.84 803.366 195.593Z" fill="black"/>
<path d="M801.25 204.5V203H799.674C799.577 202.53 799.391 202.084 799.125 201.685L800.243 200.568L799.182 199.507L798.065 200.625C797.666 200.359 797.219 200.172 796.75 200.076V198.5H795.25V200.076C794.781 200.172 794.334 200.359 793.935 200.625L792.818 199.507L791.757 200.568L792.875 201.685C792.609 202.084 792.423 202.53 792.326 203H790.75V204.5H792.326C792.423 204.969 792.609 205.416 792.875 205.815L791.757 206.932L792.818 207.993L793.935 206.875C794.334 207.141 794.78 207.327 795.25 207.424V209H796.75V207.424C797.219 207.327 797.666 207.141 798.065 206.875L799.182 207.993L800.243 206.932L799.125 205.815C799.391 205.416 799.577 204.969 799.674 204.5H801.25ZM796 206C795.555 206 795.12 205.868 794.75 205.621C794.38 205.373 794.092 205.022 793.921 204.611C793.751 204.2 793.706 203.747 793.793 203.311C793.88 202.874 794.094 202.474 794.409 202.159C794.724 201.844 795.125 201.63 795.561 201.543C795.997 201.456 796.45 201.501 796.861 201.671C797.272 201.841 797.624 202.13 797.871 202.5C798.118 202.87 798.25 203.305 798.25 203.75C798.249 204.346 798.012 204.918 797.59 205.34C797.168 205.762 796.597 205.999 796 206Z" fill="black"/>
</g>
<line x1="770" y1="176" x2="770" y2="224" stroke="#0F62FE" stroke-width="4"/>
</g>
<path d="M856 240.488H888C892.418 240.488 896 244.07 896 248.488V280.488C896 284.907 892.418 288.488 888 288.488H856C851.582 288.488 848 284.907 848 280.488V248.488C848 244.07 851.582 240.488 856 240.488Z" fill="#0F62FE"/>
<rect width="24" height="24" transform="translate(860 252.488)" fill="white" fill-opacity="0.01"/>
<path d="M881 267.488H879.5V268.988H881V273.488H863V268.988H870.5V267.488H863C862.602 267.489 862.221 267.647 861.94 267.928C861.659 268.209 861.5 268.591 861.5 268.988V273.488C861.5 273.886 861.659 274.267 861.94 274.548C862.221 274.83 862.602 274.988 863 274.988H881C881.398 274.988 881.779 274.83 882.06 274.548C882.341 274.267 882.5 273.886 882.5 273.488V268.988C882.5 268.591 882.341 268.209 882.06 267.928C881.779 267.647 881.398 267.489 881 267.488Z" fill="#F4F4F4"/>
<path d="M865.25 271.988C865.664 271.988 866 271.652 866 271.238C866 270.824 865.664 270.488 865.25 270.488C864.836 270.488 864.5 270.824 864.5 271.238C864.5 271.652 864.836 271.988 865.25 271.988Z" fill="#F4F4F4"/>
<path d="M882.5 258.488H876.5V262.988H872V268.988H878V264.488H882.5V258.488ZM876.5 267.488H873.5V264.488H876.5V267.488ZM881 262.988H878V259.988H881V262.988Z" fill="#F4F4F4"/>
<path d="M873.5 259.988H867.5V253.988H873.5V259.988ZM869 258.488H872V255.488H869V258.488Z" fill="#F4F4F4"/>
<path d="M844.98 310.656C843.314 310.656 842.166 309.998 841.34 309.032L842.586 307.828C843.258 308.612 844.084 309.032 845.092 309.032C846.226 309.032 846.814 308.486 846.814 307.66C846.814 307.002 846.506 306.596 845.484 306.414L844.56 306.274C842.586 305.966 841.634 305.028 841.634 303.432C841.634 301.682 842.992 300.548 845.176 300.548C846.646 300.548 847.738 301.052 848.522 301.99L847.262 303.18C846.786 302.578 846.114 302.172 845.078 302.172C844.028 302.172 843.482 302.592 843.482 303.32C843.482 304.062 843.902 304.37 844.84 304.538L845.75 304.706C847.724 305.056 848.648 305.938 848.648 307.548C848.648 309.396 847.318 310.656 844.98 310.656ZM852.341 310.488H850.549V303.18H852.341V304.398H852.411C852.705 303.614 853.321 303.012 854.455 303.012C855.953 303.012 856.793 304.048 856.793 305.868V310.488H855.001V306.05C855.001 305.014 854.651 304.482 853.797 304.482C853.055 304.482 852.341 304.874 852.341 305.658V310.488ZM860.746 310.656C859.262 310.656 858.422 309.802 858.422 308.5C858.422 307.002 859.556 306.26 861.544 306.26H862.79V305.728C862.79 304.916 862.384 304.44 861.432 304.44C860.592 304.44 860.116 304.86 859.766 305.364L858.702 304.412C859.234 303.572 860.088 303.012 861.558 303.012C863.532 303.012 864.582 303.95 864.582 305.616V309.06H865.31V310.488H864.316C863.546 310.488 863.07 309.984 862.958 309.228H862.874C862.636 310.166 861.838 310.656 860.746 310.656ZM861.348 309.354C862.146 309.354 862.79 308.99 862.79 308.304V307.338H861.642C860.704 307.338 860.242 307.66 860.242 308.234V308.472C860.242 309.06 860.648 309.354 861.348 309.354ZM866.92 313.288V303.18H868.712V304.384H868.768C869.034 303.544 869.818 303.012 870.784 303.012C872.632 303.012 873.654 304.384 873.654 306.82C873.654 309.27 872.632 310.656 870.784 310.656C869.818 310.656 869.048 310.096 868.768 309.27H868.712V313.288H866.92ZM870.21 309.172C871.134 309.172 871.778 308.5 871.778 307.464V306.204C871.778 305.168 871.134 304.482 870.21 304.482C869.356 304.482 868.712 304.944 868.712 305.658V307.982C868.712 308.738 869.356 309.172 870.21 309.172ZM877.868 310.656C876.482 310.656 875.572 310.152 874.844 309.312L875.936 308.248C876.468 308.864 877.112 309.242 877.938 309.242C878.792 309.242 879.156 308.92 879.156 308.402C879.156 307.982 878.904 307.716 878.26 307.632L877.532 307.534C875.964 307.338 875.096 306.652 875.096 305.322C875.096 303.908 876.202 303.012 877.868 303.012C879.296 303.012 880.024 303.432 880.724 304.16L879.674 305.21C879.254 304.762 878.638 304.426 877.924 304.426C877.154 304.426 876.818 304.734 876.818 305.182C876.818 305.672 877.084 305.896 877.77 306.008L878.512 306.106C880.108 306.33 880.878 307.044 880.878 308.262C880.878 309.676 879.688 310.656 877.868 310.656ZM882.621 310.488V300.128H884.413V304.398H884.483C884.777 303.614 885.393 303.012 886.527 303.012C888.025 303.012 888.865 304.048 888.865 305.868V310.488H887.073V306.05C887.073 305.014 886.723 304.482 885.869 304.482C885.127 304.482 884.413 304.874 884.413 305.658V310.488H882.621ZM893.909 310.656C891.823 310.656 890.521 309.172 890.521 306.82C890.521 304.482 891.823 303.012 893.909 303.012C896.009 303.012 897.311 304.482 897.311 306.82C897.311 309.172 896.009 310.656 893.909 310.656ZM893.909 309.214C894.847 309.214 895.435 308.612 895.435 307.506V306.148C895.435 305.056 894.847 304.454 893.909 304.454C892.985 304.454 892.397 305.056 892.397 306.148V307.506C892.397 308.612 892.985 309.214 893.909 309.214ZM901.287 310.488C900.055 310.488 899.397 309.816 899.397 308.626V304.608H898.319V303.18H898.879C899.411 303.18 899.579 302.928 899.579 302.424V301.178H901.189V303.18H902.687V304.608H901.189V309.06H902.575V310.488H901.287Z" fill="black"/>
<path d="M856 548H888C892.418 548 896 551.582 896 556V588C896 592.418 892.418 596 888 596H856C851.582 596 848 592.418 848 588V556C848 551.582 851.582 548 856 548Z" fill="#0F62FE"/>
<rect width="24" height="24" transform="translate(860 560)" fill="white" fill-opacity="0.01"/>
<path d="M881 575H879.5V576.5H881V581H863V576.5H870.5V575H863C862.602 575 862.221 575.159 861.94 575.44C861.659 575.721 861.5 576.102 861.5 576.5V581C861.5 581.398 861.659 581.779 861.94 582.06C862.221 582.341 862.602 582.5 863 582.5H881C881.398 582.5 881.779 582.341 882.06 582.06C882.341 581.779 882.5 581.398 882.5 581V576.5C882.5 576.102 882.341 575.721 882.06 575.44C881.779 575.159 881.398 575 881 575Z" fill="#F4F4F4"/>
<path d="M865.25 579.5C865.664 579.5 866 579.164 866 578.75C866 578.336 865.664 578 865.25 578C864.836 578 864.5 578.336 864.5 578.75C864.5 579.164 864.836 579.5 865.25 579.5Z" fill="#F4F4F4"/>
<path d="M882.5 566H876.5V570.5H872V576.5H878V572H882.5V566ZM876.5 575H873.5V572H876.5V575ZM881 570.5H878V567.5H881V570.5Z" fill="#F4F4F4"/>
<path d="M873.5 567.5H867.5V561.5H873.5V567.5ZM869 566H872V563H869V566Z" fill="#F4F4F4"/>
<path d="M844.98 618.168C843.314 618.168 842.166 617.51 841.34 616.544L842.586 615.34C843.258 616.124 844.084 616.544 845.092 616.544C846.226 616.544 846.814 615.998 846.814 615.172C846.814 614.514 846.506 614.108 845.484 613.926L844.56 613.786C842.586 613.478 841.634 612.54 841.634 610.944C841.634 609.194 842.992 608.06 845.176 608.06C846.646 608.06 847.738 608.564 848.522 609.502L847.262 610.692C846.786 610.09 846.114 609.684 845.078 609.684C844.028 609.684 843.482 610.104 843.482 610.832C843.482 611.574 843.902 611.882 844.84 612.05L845.75 612.218C847.724 612.568 848.648 613.45 848.648 615.06C848.648 616.908 847.318 618.168 844.98 618.168ZM852.341 618H850.549V610.692H852.341V611.91H852.411C852.705 611.126 853.321 610.524 854.455 610.524C855.953 610.524 856.793 611.56 856.793 613.38V618H855.001V613.562C855.001 612.526 854.651 611.994 853.797 611.994C853.055 611.994 852.341 612.386 852.341 613.17V618ZM860.746 618.168C859.262 618.168 858.422 617.314 858.422 616.012C858.422 614.514 859.556 613.772 861.544 613.772H862.79V613.24C862.79 612.428 862.384 611.952 861.432 611.952C860.592 611.952 860.116 612.372 859.766 612.876L858.702 611.924C859.234 611.084 860.088 610.524 861.558 610.524C863.532 610.524 864.582 611.462 864.582 613.128V616.572H865.31V618H864.316C863.546 618 863.07 617.496 862.958 616.74H862.874C862.636 617.678 861.838 618.168 860.746 618.168ZM861.348 616.866C862.146 616.866 862.79 616.502 862.79 615.816V614.85H861.642C860.704 614.85 860.242 615.172 860.242 615.746V615.984C860.242 616.572 860.648 616.866 861.348 616.866ZM866.92 620.8V610.692H868.712V611.896H868.768C869.034 611.056 869.818 610.524 870.784 610.524C872.632 610.524 873.654 611.896 873.654 614.332C873.654 616.782 872.632 618.168 870.784 618.168C869.818 618.168 869.048 617.608 868.768 616.782H868.712V620.8H866.92ZM870.21 616.684C871.134 616.684 871.778 616.012 871.778 614.976V613.716C871.778 612.68 871.134 611.994 870.21 611.994C869.356 611.994 868.712 612.456 868.712 613.17V615.494C868.712 616.25 869.356 616.684 870.21 616.684ZM877.868 618.168C876.482 618.168 875.572 617.664 874.844 616.824L875.936 615.76C876.468 616.376 877.112 616.754 877.938 616.754C878.792 616.754 879.156 616.432 879.156 615.914C879.156 615.494 878.904 615.228 878.26 615.144L877.532 615.046C875.964 614.85 875.096 614.164 875.096 612.834C875.096 611.42 876.202 610.524 877.868 610.524C879.296 610.524 880.024 610.944 880.724 611.672L879.674 612.722C879.254 612.274 878.638 611.938 877.924 611.938C877.154 611.938 876.818 612.246 876.818 612.694C876.818 613.184 877.084 613.408 877.77 613.52L878.512 613.618C880.108 613.842 880.878 614.556 880.878 615.774C880.878 617.188 879.688 618.168 877.868 618.168ZM882.621 618V607.64H884.413V611.91H884.483C884.777 611.126 885.393 610.524 886.527 610.524C888.025 610.524 888.865 611.56 888.865 613.38V618H887.073V613.562C887.073 612.526 886.723 611.994 885.869 611.994C885.127 611.994 884.413 612.386 884.413 613.17V618H882.621ZM893.909 618.168C891.823 618.168 890.521 616.684 890.521 614.332C890.521 611.994 891.823 610.524 893.909 610.524C896.009 610.524 897.311 611.994 897.311 614.332C897.311 616.684 896.009 618.168 893.909 618.168ZM893.909 616.726C894.847 616.726 895.435 616.124 895.435 615.018V613.66C895.435 612.568 894.847 611.966 893.909 611.966C892.985 611.966 892.397 612.568 892.397 613.66V615.018C892.397 616.124 892.985 616.726 893.909 616.726ZM901.287 618C900.055 618 899.397 617.328 899.397 616.138V612.12H898.319V610.692H898.879C899.411 610.692 899.579 610.44 899.579 609.936V608.69H901.189V610.692H902.687V612.12H901.189V616.572H902.575V618H901.287ZM860.46 636.168C857.884 636.168 856.246 634.474 856.246 631.184C856.246 627.894 857.884 626.06 860.46 626.06C862.21 626.06 863.344 626.802 864.03 628.314L862.448 629.154C862.168 628.286 861.552 627.698 860.46 627.698C859.088 627.698 858.206 628.692 858.206 630.358V631.898C858.206 633.578 859.088 634.53 860.46 634.53C861.566 634.53 862.252 633.858 862.574 632.976L864.072 633.858C863.372 635.314 862.21 636.168 860.46 636.168ZM868.594 636.168C866.508 636.168 865.206 634.684 865.206 632.332C865.206 629.994 866.508 628.524 868.594 628.524C870.694 628.524 871.996 629.994 871.996 632.332C871.996 634.684 870.694 636.168 868.594 636.168ZM868.594 634.726C869.532 634.726 870.12 634.124 870.12 633.018V631.66C870.12 630.568 869.532 629.966 868.594 629.966C867.67 629.966 867.082 630.568 867.082 631.66V633.018C867.082 634.124 867.67 634.726 868.594 634.726ZM873.745 638.8V628.692H875.537V629.896H875.593C875.859 629.056 876.643 628.524 877.609 628.524C879.457 628.524 880.479 629.896 880.479 632.332C880.479 634.782 879.457 636.168 877.609 636.168C876.643 636.168 875.873 635.608 875.593 634.782H875.537V638.8H873.745ZM877.035 634.684C877.959 634.684 878.603 634.012 878.603 632.976V631.716C878.603 630.68 877.959 629.994 877.035 629.994C876.181 629.994 875.537 630.456 875.537 631.17V633.494C875.537 634.25 876.181 634.684 877.035 634.684ZM885.382 632.556L886.656 628.692H888.336L885.396 637.302C885.032 638.352 884.514 638.8 883.31 638.8H882.232V637.372H883.548L883.884 636.35L881.266 628.692H883.044L884.318 632.556L884.794 634.404H884.878L885.382 632.556Z" fill="black"/>
<rect width="184.453" height="48" transform="translate(944 264) rotate(90)" fill="white" fill-opacity="0.01" style="mix-blend-mode:multiply"/>
<path d="M944 448.453L944 272C944 267.582 940.418 264 936 264L896 264" stroke="black" stroke-dasharray="4 4"/>
<rect width="128.528" height="48" transform="matrix(1.53527e-08 -1 -1 -9.2624e-09 944 576)" fill="white" fill-opacity="0.01" style="mix-blend-mode:multiply"/>
<path d="M944 447.472L944 568C944 572.418 940.418 576 936 576L896 576" stroke="black" stroke-dasharray="4 4"/>
<defs>
<clipPath id="clip0_571_10292">
<rect width="1056" height="48" fill="white"/>
</clipPath>
<clipPath id="clip1_571_10292">
<rect width="960" height="48" fill="white" transform="translate(48 96)"/>
</clipPath>
<clipPath id="clip2_571_10292">
<rect width="960" height="48" fill="white" transform="translate(48 432)"/>
</clipPath>
<clipPath id="clip3_571_10292">
<rect width="208" height="48" fill="white" transform="translate(64 176)"/>
</clipPath>
<clipPath id="clip4_571_10292">
<rect width="208" height="48" fill="white" transform="translate(288 176)"/>
</clipPath>
<clipPath id="clip5_571_10292">
<rect width="208" height="48" fill="white" transform="translate(512 176)"/>
</clipPath>
<clipPath id="clip6_571_10292">
<rect width="208" height="48" fill="white" transform="translate(64 512)"/>
</clipPath>
<clipPath id="clip7_571_10292">
<rect width="208" height="48" fill="white" transform="translate(288 512)"/>
</clipPath>
<clipPath id="clip8_571_10292">
<rect width="208" height="48" fill="white" transform="translate(512 512)"/>
</clipPath>
<clipPath id="clip9_571_10292">
<rect width="208" height="48" fill="white" transform="translate(768 176)"/>
</clipPath>
<clipPath id="clip10_571_10292">
<rect width="24" height="24" fill="white" transform="translate(784 188)"/>
</clipPath>
</defs>
</svg>
